<svg xmlns="http://www.w3.org/2000/svg" viewBox="0 0 2000 1423.61"><defs><style>.cls-1,.cls-2{fill:#f7f3ef}.cls-2,.cls-6,.cls-7,.cls-8{stroke:#070707}.cls-11,.cls-2,.cls-3,.cls-5,.cls-6,.cls-7,.cls-8{stroke-linecap:round;stroke-linejoin:round}.cls-11,.cls-2,.cls-3,.cls-5,.cls-6,.cls-7{stroke-width:4px}.cls-3{fill:#efaf00}.cls-11,.cls-3{stroke:#000}.cls-4{fill:#1c0e0c}.cls-5{fill:#c48270;stroke:#0f0f0f}.cls-11,.cls-6{fill:none}.cls-7,.cls-8{fill:#e57b07}.cls-8{stroke-width:2px}.cls-12{fill:#070707}</style></defs><g id="Layer_2" data-name="Layer 2"><path id="BACKGROUND" class="cls-1" d="M10.08 12.73h1996.44V1490.1H10.08z"/></g><g id="Chars"><g id="COOK"><g id="LEGS"><path class="cls-2" d="M1196.33 1417.49c0 12.23 9.13 16.7 9.12 38.39h-98s-1.67-22.38 22-23.07c20.34-.59 34.33-13.42 34.11-15.32s32.77 0 32.77 0zm-193.88 0c0 12.23 9.13 16.7 9.12 38.39h-98s-1.67-22.38 22-23.07c20.34-.59 34.33-13.42 34.11-15.32s32.77 0 32.77 0z" id="SHOES"/><path id="PANTS" class="cls-2" d="M997.75 867.2l191.52-.19c16 90.65-15.06 215.65-16.18 231-3.25 44.61 18.07 72.51 29 117.63 17.87 73.61 13.41 171.28.21 208.3l-51.87.35c-1.5-12.76-63-266-66-296.7l-18.09-86.26-18.79 77.67c-14.86 45.92-8.27 45.79-6.16 92.17 3.64 79.81-10.84 178.61-32.38 212.43l-58.84-.9c.09-138.4-5-272-3.29-298 .4-16.2 20.44-148.55 50.87-257.5z"/><path id="SHADOW" class="cls-2" d="M1066.38 1041.33c-2.92-12.32-9.44-61.61-13.86-63.73"/></g><g id="SHIRT"><path class="cls-3" d="M1199.23 934.05s-2.76-194.62-43.71-269.57c-23.83-43.62-113.67-62.7-125.79-63.48-15.9-1-44.1-.38-90.14 14.82-40.86 13.48-46.58 50.46-28.82 94.31S992.2 867 992.2 867c-2.6 19.77-14.2 70-14.2 70s126 9.67 221.23-2.95z"/><path class="cls-4" d="M1046.2 604.08s3.48 33-37.58 56.19l-7.28-17.68 23.47-43.59zm-119.94 17.48s13.2 46 51.74 49.14l-1.6-15.33-21.47-47.64z"/><path class="cls-3" d="M1002.15 647l10.85 26a12.56 12.56 0 01-12.11 15.9h-39.2a12.8 12.8 0 00-11.75 17.89l82.44 182.44c1.93 4.19-3.68 50.21-3.68 50.21h65.18"/><circle class="cls-2" cx="976.64" cy="721.12" r="6.19"/><circle class="cls-2" cx="1010.09" cy="721.12" r="6.19"/><circle class="cls-2" cx="993.58" cy="764.07" r="6.19"/><circle class="cls-2" cx="1027.02" cy="764.07" r="6.19"/><circle class="cls-2" cx="1011.56" cy="807.62" r="6.07"/><circle class="cls-2" cx="1041.93" cy="807.22" r="6.07"/></g><g id="LEFT_HAND" data-name="LEFT HAND"><path id="HAND" class="cls-3" d="M926.26 621.56c-17 6.49-43.48 20.83-50.43 41.27s-24.48 76.36-24.48 76.36-29.06-27-34.54-35.39c0 0-1.49 16.83-36.25 17.56 0 0 19 132.73 90 135.9 28.05 1.26 56.44-36.48 60.44-104.14z"/><path id="LINE" class="cls-2" d="M849.7 735.48c7.67 9.29 24.38 34.38 32.2 52.47"/><g id="ARM"><path class="cls-5" d="M818.26 705.54s-19-33.84-34-40.92c-4.91-2.33-31 9.3-33.27 12s-7.86 24.11-7.86 24.11 8.78 2.35 12-4c3.75-7.32 10.2-14.89 18.72-12.52 4.9 1.36 15.21 13.57 10.75 16.52s-11.26-5.67-17.68-7.18-11.09 3.24-11.09 3.24 9.34 4.59 13.14 12.59c2.23 4.72 7.51 14 21.61 11.5 18.42-3.23 27.68-15.34 27.68-15.34z"/><path class="cls-4" d="M751 676.63s-9.62 8.52-20.41 13.09c0 0 3 8.46 14.85 2.63z"/></g><path id="CUFF" class="cls-3" d="M780.16 721s26-.36 38.1-15.43l10.14 11.73s-13.27 20.89-45.37 20z"/><g id="SPICE"><path class="cls-2" d="M759.75 713.27a2.13 2.13 0 101.35-2.7 2.13 2.13 0 00-1.35 2.7zm-21.1 21.54a1.71 1.71 0 101.09-2.16 1.72 1.72 0 00-1.09 2.16zm7.84 44.07a2.13 2.13 0 101.35-2.69 2.13 2.13 0 00-1.35 2.69zm17.75 5.49a2.34 2.34 0 101.49-3 2.34 2.34 0 00-1.49 3zm-11.09 33.87a2.35 2.35 0 10-.78-3.22 2.35 2.35 0 00.78 3.22zm-7.5-11.76a2.56 2.56 0 10-3.23-1.62 2.56 2.56 0 003.23 1.62zm17.41-45.26a2.34 2.34 0 101.49-3 2.34 2.34 0 00-1.49 3zm-4.32-23.5a2.13 2.13 0 101.36-2.72 2.15 2.15 0 00-1.36 2.72zm-9.15 6.96a2.2 2.2 0 101.4-2.77 2.21 2.21 0 00-1.4 2.77zm1.89-14.27a2.19 2.19 0 101.39-2.77 2.18 2.18 0 00-1.39 2.77zm-5.3 27.9a2.2 2.2 0 101.4-2.77 2.21 2.21 0 00-1.4 2.77zm9.01 39.2a2.2 2.2 0 101.39-2.77 2.2 2.2 0 00-1.39 2.77zM745 841a2.19 2.19 0 101.4-2.77A2.2 2.2 0 00745 841zm16-18.19a2.2 2.2 0 101.4-2.78 2.21 2.21 0 00-1.4 2.78z"/><circle class="cls-2" cx="734.19" cy="822.19" r="2.19"/><path class="cls-2" d="M776.36 822.44a2.2 2.2 0 101.39-2.78 2.19 2.19 0 00-1.39 2.78zm-20.99-53.31a2.2 2.2 0 101.39-2.78 2.19 2.19 0 00-1.39 2.78zm-20.07 17.7a2.2 2.2 0 101.4-2.77 2.2 2.2 0 00-1.4 2.77zm36.22 4.17a2.2 2.2 0 101.39-2.78 2.19 2.19 0 00-1.39 2.78zM755 706.55a1.46 1.46 0 10.93-1.85 1.46 1.46 0 00-.93 1.85zm5.67 44.66a1.46 1.46 0 10.93-1.85 1.46 1.46 0 00-.93 1.85z"/><path class="cls-2" d="M760.67 751.21a1.46 1.46 0 10.93-1.85 1.46 1.46 0 00-.93 1.85zm1.6 22.45a1.46 1.46 0 10.93-1.85 1.45 1.45 0 00-.93 1.85z"/><circle class="cls-2" cx="741.81" cy="764.04" r="1.46"/><path class="cls-2" d="M738.05 774.86A1.46 1.46 0 10739 773a1.45 1.45 0 00-.95 1.86zM762 810.84a1.46 1.46 0 001.85.93A1.46 1.46 0 10763 809a1.46 1.46 0 00-1 1.84zm13.6-5.05a1.46 1.46 0 10.93-1.85 1.47 1.47 0 00-.93 1.85zm-32.48 19.85a1.46 1.46 0 10.93-1.85 1.48 1.48 0 00-.93 1.85z"/><circle class="cls-2" cx="757.88" cy="831.31" r="1.46" transform="rotate(-81.31 757.927 831.316)"/><path class="cls-2" d="M732.2 810.92a1.46 1.46 0 102.8-.92 1.46 1.46 0 00-2.78.92zm49.28 2.84a1.46 1.46 0 10.93-1.85 1.46 1.46 0 00-.93 1.85zm-13.3 15.68a1.46 1.46 0 10.93-1.85 1.46 1.46 0 00-.93 1.85z"/><circle class="cls-2" cx="765.03" cy="845.51" r="1.46" transform="rotate(-81.31 765.08 845.522)"/><path class="cls-2" d="M777.21 836.91A1.46 1.46 0 10780 836a1.46 1.46 0 10-2.77.92zm-38.69-1.28a1.46 1.46 0 10.93-1.85 1.47 1.47 0 00-.93 1.85zm-11.91 8.29a1.48 1.48 0 001.85.93 1.46 1.46 0 10-1.85-.93zm15.31 14.99a1.46 1.46 0 10.93-1.84 1.45 1.45 0 00-.93 1.84zm2.17-70.44a1.46 1.46 0 10.93-1.85 1.47 1.47 0 00-.93 1.85z"/><circle class="cls-2" cx="765.31" cy="804.47" r="1.46"/><path class="cls-2" d="M758.79 789.41a1.46 1.46 0 10.93-1.85 1.46 1.46 0 00-.93 1.85z"/></g></g><g id="HEAD"><path id="HEAD-2" data-name="HEAD" class="cls-5" d="M933.38 588.39c-1-1.16-1.24 23.46 2.67 41.22 7.18 32.58 30.27 39.64 34.74 40 25.87 1.9 44.4-25.67 44.5-34.64s-.12-15.62-.12-15.62 17.76-10.21 9.2-20.39c-5.45-6.52-42.98-22.21-90.99-10.57z"/><g id="CAP"><path class="cls-2" d="M933.38 588.39l-5.54-24S969.4 544.84 1028 576l-3.59 23s-37.53-22.22-91.03-10.61z"/><path class="cls-2" d="M910.12 549.13c5.41 10.4 15 16.53 17.72 15.28 14.87-6.72 36-6.17 43.15-5.74 27.64 30.55 96.49 76.59 91.31 16-5.22-61-113.82-96.11-145.89-70.55-5.92 4.67-19.19 20.17-6.29 45.01z"/><path class="cls-6" d="M1052.82 604.13c-27 1.66-60.76-24.12-80.28-44.32l-.45-.41C957.64 545.8 940 512 905.57 525"/></g><path class="cls-4" d="M974.46 585.37s-25.23 22.87-44.39 14.26c-21.35-9.59-3.17-24.74 1.9-17.37 6.75 9.82 19.55-.2 42.49 3.11zm17.32 2.32s9.7 1 12.73 12.94 9.33 5.59 9.33 5.59.53-12.07 3.61-10.68a82 82 0 00-25.67-7.85z" id="HAIR"/></g></g><path class="cls-1" d="M247.57 1012.54h982.18v452.07H247.57z"/><g id="KITCHEN_STOVE" data-name="KITCHEN STOVE"><path id="FLOOR" class="cls-2" d="M1827.43 1070.96h-628.2"/><g id="TILE"><path class="cls-2" d="M1312.57 415.01v74.12h-64.18m128.36-74.12v74.12h-64.18v-74.12m-64.18 148.24h64.18v-74.12h-64.18"/><path class="cls-2" d="M1312.57 489.13h64.18v74.12h-64.18zm128.36-74.12v74.12h-64.18v-74.12"/><path class="cls-2" d="M1505.11 415.01v74.12h-64.18v-74.12m-64.18 74.12h64.18v74.12h-64.18zm64.18 0h64.18v74.12h-64.18zm-192.54 74.12h64.18v74.12h-64.18m64.18-74.12h64.18v74.12h-64.18zm-64.18 74.12h64.18v74.12h-64.18m64.18-74.12h64.18v74.12h-64.18zm64.18-74.12h64.18v74.12h-64.18zm64.18 0h64.18v74.12h-64.18zm-64.18 74.12h64.18v74.12h-64.18zm64.18 0h64.18v74.12h-64.18zm128.36-222.36v74.12h-64.18v-74.12m64.18 0v74.12h64.17v-74.12m-128.35 74.12h64.18v74.12h-64.18z"/><path class="cls-2" d="M1569.28 489.13h64.18v74.12h-64.18zm128.36-74.12v74.12h-64.18v-74.12m128.36 74.12h-64.18v74.12h64.18"/><path class="cls-2" d="M1761.82 489.13h-64.18v-74.12m-64.18 74.12h64.18v74.12h-64.18zm-128.35 74.12h64.18v74.12h-64.18z"/><path class="cls-2" d="M1569.28 563.25h64.18v74.12h-64.18zm-64.17 74.12h64.18v74.12h-64.18z"/><path class="cls-2" d="M1569.28 637.37h64.18v74.12h-64.18zm64.18-74.12h64.18v74.12h-64.18zm128.36 74.12h-64.18v74.12h64.18"/><path class="cls-2" d="M1761.82 637.37h-64.18v-74.12h64.18m-128.36 74.12h64.18v74.12h-64.18z"/></g><g id="POT"><path class="cls-2" d="M1432.81 594.95h119.45v88.32a16.73 16.73 0 01-16.73 16.73h-86a16.73 16.73 0 01-16.73-16.73v-88.32h.01zm119.45 8.73h13.93l15-9.32a2.31 2.31 0 00.75-2.66 2.77 2.77 0 00-4.24-1l-13.44 8.08h-12zm-119.46 0h-13.93l-15-9.32a2.3 2.3 0 01-.75-2.66 2.77 2.77 0 014.24-1l13.44 8.08h12zm119.46-8.89h-119.45c5.79-8.18 30.33-14.32 59.72-14.32s53.94 6.14 59.73 14.32z"/><path class="cls-2" d="M1502.34 569.79H1484a2.34 2.34 0 00-2.34 3.16l3.25 7.55h16.5l3.24-7.55a2.34 2.34 0 00-2.31-3.16z"/></g><g id="FRYING_PAN" data-name="FRYING PAN"><path class="cls-2" d="M1367.35 700h-67.69c-11.06 0-21-7.33-24.83-18.39l-4.49-12.82h126.32l-4.49 12.82c-3.87 11.05-13.76 18.39-24.82 18.39z"/><rect class="cls-2" x="1266.31" y="663.62" width="134.38" height="5.16" rx="2.51"/><path class="cls-2" d="M1441.31 673.16h-46.09l1.56-4.39h44.53v4.39z"/><rect class="cls-2" x="1440.53" y="665.81" width="51.56" height="9.3" rx="4.21"/><path class="cls-2" d="M1616 426.09c-110.37 2.79-152.74 58.83-128 114.78 43.71 98.94-129.61 78.83-148.51 98.79-15.66 16.54 19.22 24.12 19.22 24.12h-32.21s-53.85-20.47-31-57.89 88.45-31.15 88.45-69.5-119.83-51.92-86.6-110.17z"/></g><g id="STOVE_HOOD" data-name="STOVE HOOD"><rect class="cls-2" x="1231.51" y="388.79" width="549.14" height="36.9" rx="6.04"/><path class="cls-2" d="M1713.87 388.44h-415.58l139.63-115.4h136.32l139.63 115.4zm-275.45-194.75h135.33v79.34h-135.33z"/></g><g id="NOTES"><path class="cls-2" d="M1681.12 466.29h-48a10.73 10.73 0 01-10.73-10.73v-50.44h48v50.44a10.73 10.73 0 0010.73 10.73zm-8.53-53.32l-8.68-9.94m-43.29 9.94l8.68-9.94m7.64 18.02h20.38m-20.38 10.31h20.38m-20.38 10.31h20.38m-20.38 10.31h20.38"/><path class="cls-3" d="M1687.5 412.16h34.98v35.89h-34.98z"/><path class="cls-2" d="M1701.8 408.46h6.23v6.77h-6.23z"/></g><g id="COOKER"><path class="cls-2" d="M1229.75 711.49h550.84v320.59h-550.84z"/><path class="cls-2" d="M1229.75 736.71h550.84v62.88h-550.84z"/><path class="cls-2" d="M1595.59 799.58h185.06v232.49h-185.06z"/><path class="cls-2" d="M1614.67 811.6h147.29v187.52h-147.29zm-365.33 0h323.58v187.52h-323.58zm531.26 259.36h-18.21l-.43-38.88h18.64v38.88zm-550.85 0h18.2l.44-38.88h-18.64v38.88zm346.95-38.88h18.64v38.89h-18.64z"/><path class="cls-4" d="M1755.65 816.59v49.25l-134.88 104.38V816.59h134.88zm0 77.92v25.76l-89.36 72.68h-40.43l129.79-98.44z"/><rect class="cls-2" x="1632.06" y="822.71" width="112.51" height="11.63" rx="4.48"/><circle class="cls-2" cx="1667.13" cy="767.83" r="10.8" transform="rotate(-80.72 1667.19 767.819)"/><circle class="cls-2" cx="1701.35" cy="767.83" r="10.8" transform="rotate(-76.6 1701.273 767.85)"/><path class="cls-2" d="M1667.13 767.83v-10.8m34.22 10.8v-10.8"/><circle class="cls-2" cx="1300.36" cy="767.83" r="10.8" transform="rotate(-45 1300.366 767.83)"/><circle class="cls-2" cx="1334.58" cy="767.83" r="10.8" transform="rotate(-45 1334.588 767.836)"/><circle class="cls-2" cx="1392.59" cy="767.83" r="10.8" transform="rotate(-76.6 1392.523 767.843)"/><circle class="cls-2" cx="1426.81" cy="767.83" r="10.8" transform="rotate(-45 1426.808 767.837)"/><circle class="cls-2" cx="1484.82" cy="767.83" r="10.8" transform="rotate(-76.6 1484.751 767.847)"/><circle class="cls-2" cx="1519.04" cy="767.83" r="10.8" transform="rotate(-76.6 1518.972 767.848)"/><path class="cls-2" d="M1484.82 767.83l8.18 7.05m26.04-7.05v-10.8m-218.68 10.8l9.54-5.07m24.68 5.07v-10.8m58.01 10.8v-10.8m34.22 10.8v-10.8"/><path class="cls-4" d="M1488.26 816.59l-233.2 169.64V816.59h233.2zm31.29 0h42.71l-249.88 175.12h-42.71l249.88-175.12z"/><rect class="cls-2" x="1263.5" y="822.71" width="291.83" height="11.63" rx="3.98"/><path class="cls-2" d="M1454.51 711.49l11.8-9.4h56.26l11.8 9.4m-39.93-9.4v9.4m152.51 0l11.8-9.4h56.26l11.8 9.4m-39.93-9.4v9.4m-394.12 0l11.81-9.4h56.25l11.81 9.4m-39.94-9.4v9.4"/></g></g><g id="TABLE"><path class="cls-2" d="M1361.72 895.02h31.39v265.7h-31.39z"/><path class="cls-2" d="M1361.71 1160.71V895.02h31.4v265.69"/><path class="cls-2" d="M209.55 996.1h1020.23l184.79-127.78H385.39L209.55 996.1z"/><path class="cls-2" d="M209.55 996.1h1020.23l184.79-127.78H385.39"/><path class="cls-2" d="M209.7 996.1h1020.19l184.78-127.78v16.23l-184.78 127.79H209.66l.04-16.24z"/><path class="cls-2" d="M209.7 996.1h1020.19l184.78-127.78v16.23l-184.78 127.79H209.66m37.91 206.34v-206.14h951.66v206.14"/><path class="cls-4" d="M1199.23 1012.54v15.89l-951.66 92.84v-108.73h951.66z"/></g><g id="GLASS_OF_WINE" data-name="GLASS OF WINE"><path class="cls-2" d="M519.38 858.8a8.77 8.77 0 00-8.78 8.77v34.83a9.89 9.89 0 006.78 9.39l9 3a.66.66 0 01-.21 1.29H492a.66.66 0 01-.21-1.29l9-3a9.9 9.9 0 006.77-9.39v-34.83a8.77 8.77 0 00-8.77-8.77h20.58zm-1.38-3.87h-17.82a9.42 9.42 0 01-9.37-10.29l1.2-12.76h34.15l1.2 12.76a9.42 9.42 0 01-9.36 10.29z"/><path class="cls-2" d="M520 858.8h-21.84a11.56 11.56 0 01-11.51-12.63l4.4-47.11h36.07l4.4 47.11A11.56 11.56 0 01520 858.8z"/></g><g id="WINE"><path class="cls-2" d="M576.56 752.46a29.06 29.06 0 0129.06 29.06v122.73a11.82 11.82 0 01-11.82 11.82h-34.48a11.82 11.82 0 01-11.82-11.82V781.52a29.06 29.06 0 0129.06-29.06z"/><path class="cls-2" d="M605.61 781.52v122.73a11.82 11.82 0 01-11.82 11.82h-34.47a11.82 11.82 0 01-11.82-11.82V781.52a29.07 29.07 0 0120.38-27.74v-42.07a4.29 4.29 0 014.29-4.28H581a4.28 4.28 0 014.28 4.28v42.07a29.07 29.07 0 0120.38 27.74z"/><path class="cls-2" d="M551.84 901.3V781.68h49.43V901.3a9.58 9.58 0 01-9.36 9.78H561.2a9.58 9.58 0 01-9.36-9.78z"/><path class="cls-7" d="M605.61 781.52v122.73a11.8 11.8 0 01-4.05 8.91 6.13 6.13 0 01-9.62-2.28l-1-2.29a15.67 15.67 0 00-14.39-9.46 15.68 15.68 0 00-14.4 9.46l-1 2.29a6.13 6.13 0 01-9.62 2.28 11.78 11.78 0 01-4-8.91V781.52a29.07 29.07 0 0120.38-27.74v-42.07a4.29 4.29 0 014.29-4.28h8.8a4.28 4.28 0 014.28 4.28v42.07a29.1 29.1 0 0120.38 27.74z"/><path class="cls-2" d="M559.76 801.67h33.6v62.89h-33.6zm11.94-95.16h9.72a4.73 4.73 0 014.73 4.73v14.11H567v-14.12a4.73 4.73 0 014.7-4.72z"/></g><g id="PEPPER_SHAKER" data-name="PEPPER SHAKER"><path class="cls-2" d="M650.57 786.56a11.76 11.76 0 01-11.77-11.76 11.77 11.77 0 0111.77-11.8 11.76 11.76 0 0111.76 11.77 11.75 11.75 0 01-11.76 11.79z"/><path class="cls-2" d="M651.08 784.5h-2.57a11.77 11.77 0 01-11.77-11.76A11.77 11.77 0 01648.51 761h2.57a11.77 11.77 0 0111.77 11.77 11.77 11.77 0 01-11.77 11.73zm6.66 80.57h-15.89c-5.48 0-9.74-7.34-9.14-12.78l1.63-14.82c1.6-14.46 3.78-26.49 1.4-40.84a8.22 8.22 0 018.11-9.55h11.9a8.21 8.21 0 018.1 9.55v.1c-2.37 14.34-.18 26.36 1.41 40.8l1.63 14.76c.59 5.44-3.67 12.78-9.15 12.78z"/><path class="cls-2" d="M657.74 865.07h-15.89c-5.48 0-9.74-7.34-9.14-12.78l1.63-14.82c1.6-14.46 3.78-26.49 1.4-40.84a8.22 8.22 0 018.11-9.55h11.9a8.21 8.21 0 018.1 9.55v.1c-2.37 14.34-.18 26.36 1.41 40.8l1.63 14.76c.59 5.44-3.67 12.78-9.15 12.78z"/><rect class="cls-2" x="633.3" y="863.52" width="32.99" height="5.01" rx="2.5"/><path class="cls-2" d="M662.42 787.65h-25.25a2.19 2.19 0 01-2.19-2.19 2.19 2.19 0 012.19-2.19h25.25a2.19 2.19 0 012.19 2.19 2.19 2.19 0 01-2.19 2.19zm1.58 99.41h-25.77a2.76 2.76 0 01-2.73-3.15l1.56-10.71a2.75 2.75 0 012.72-2.36h22.68a2.75 2.75 0 012.72 2.36l1.55 10.71a2.75 2.75 0 01-2.73 3.15z"/><path class="cls-2" d="M663.93 886.3h-28.27a3 3 0 01-3-3.45l1.7-11.74a3 3 0 013-2.59h24.87a3 3 0 013 2.59l1.7 11.74a3 3 0 01-3 3.45zm-21.57-27.93a2.55 2.55 0 11-2.55-2.55 2.55 2.55 0 012.55 2.55z"/><circle class="cls-2" cx="647.8" cy="848.06" r="2.55"/><path class="cls-2" d="M659.14 837.51a2.56 2.56 0 11-2.55-2.56 2.55 2.55 0 012.55 2.56zm-3.21-9.42a2.55 2.55 0 11-2.55-2.56 2.55 2.55 0 012.55 2.56zM641.59 839a2.56 2.56 0 11-2.55-2.55 2.56 2.56 0 012.55 2.55z"/><circle class="cls-2" cx="644.16" cy="834.27" r="2.55"/><path class="cls-2" d="M655.25 852.7a2.56 2.56 0 11-2.56-2.55 2.56 2.56 0 012.56 2.55z"/><circle class="cls-2" cx="662.49" cy="855.54" r="2.55"/><path class="cls-2" d="M647.51 854.51A2.55 2.55 0 11645 852a2.55 2.55 0 012.51 2.51z"/><circle class="cls-2" cx="641.87" cy="844.71" r="2.55"/><path class="cls-2" d="M659.63 858.89a2.56 2.56 0 11-2.55-2.55 2.55 2.55 0 012.55 2.55zm3.58-15.72a2.55 2.55 0 11-2.55-2.55 2.55 2.55 0 012.55 2.55z"/><circle class="cls-2" cx="650.83" cy="834.53" r="2.55"/><path class="cls-2" d="M641.07 850.9a2.55 2.55 0 11-2.55-2.55 2.55 2.55 0 012.55 2.55z"/><circle class="cls-2" cx="650.37" cy="858.89" r="2.55"/><path class="cls-2" d="M656.79 845a2.55 2.55 0 11-2.55-2.55 2.55 2.55 0 012.55 2.55zm5.41-14.5a2.55 2.55 0 11-2.55-2.55 2.55 2.55 0 012.55 2.55zm-11.83 10.84a2.55 2.55 0 11-2.55-2.55 2.55 2.55 0 012.55 2.55zm11.32 8.78a2.55 2.55 0 11-2.55-2.55 2.56 2.56 0 012.55 2.55z"/></g><g id="ONION"><path class="cls-2" d="M1212.16 898.15l-.34-4.69c.63 0 63.85-4.87 128.1-35l2 4.26c-65.07 30.51-129.12 35.38-129.76 35.43z"/><path class="cls-2" d="M1217 904.79l-1.46-4.47c46.77-15.29 113.38-9 114-9l-.46 4.68c-.61 0-66.27-6.19-112.08 8.79z"/><path class="cls-2" d="M1218.9 902.16l-1.52-4.45c39.64-13.58 79.19-16.91 105.4-17.32 28.39-.43 47.72 2.39 47.91 2.42l-.69 4.65c-.19 0-19.22-2.8-47.26-2.36-25.83.4-64.82 3.68-103.84 17.06z"/><path class="cls-2" d="M1207.17 893.45s10.42-.57 26.34-2.89c2.56-.37 2.84 9.46 2.84 9.46s-23.13 6-28.7 6.66c-3.92.5-.48-13.23-.48-13.23z"/><ellipse class="cls-2" cx="1207.18" cy="900.14" rx="4.86" ry="6.69" transform="rotate(-.08 1166.796 867.414)"/><path class="cls-2" d="M1207 905.35c-2-.15-3.68-2.42-3.69-5.18a6.22 6.22 0 011.09-3.61 3.47 3.47 0 012.8-1.58c2.14 0 3.9 2.32 3.91 5.18a6.25 6.25 0 01-1.09 3.62 3.48 3.48 0 01-2.8 1.57zm.36-9.42h-.16a2.59 2.59 0 00-2 1.19 5.22 5.22 0 00-.91 3.06c0 2.34 1.33 4.23 3 4.24a2.56 2.56 0 002-1.19 5.2 5.2 0 00.91-3.06c-.07-2.27-1.31-4.17-2.87-4.24z"/><path class="cls-2" d="M1207.06 902.67a2.3 2.3 0 01-1.84-2.51 2.27 2.27 0 012-2.52c1.11 0 2 1.1 2 2.51 0 1.42-.86 2.53-2 2.53zm.17-4.09c-.55 0-1 .72-1 1.58s.49 1.58 1 1.58 1-.73 1-1.58-.47-1.54-1-1.58zM1189.59 917l-.9-4.61c60.84-12 165.81-6.1 166.87-6l-.27 4.69c-1.05-.08-105.43-5.96-165.7 5.92z"/><path class="cls-2" d="M1188.3 925.27l-1.44-4.47c20.46-6.63 57.46-13.66 117.58-9.49a572.62 572.62 0 0163.68 7.94l-.91 4.61a564.16 564.16 0 00-63.16-7.86c-32.75-2.27-79.41-2.5-115.75 9.27z"/><path class="cls-2" d="M1188.56 913.63l.06-4.7c.24 0 24.31.25 58.15-5.34 31.18-5.15 77.28-16.46 119.81-41.07l2.36 4.07c-43.19 25-89.92 36.44-121.51 41.66-34.23 5.64-58.63 5.38-58.87 5.38z"/><path class="cls-2" transform="rotate(-8.14 1286.766 904.598)" d="M1191.65 902.2h190.17v4.7h-190.17z"/><path class="cls-2" d="M1188.76 908.93s19.61-.33 40.33-2.87c0 0 5.75 4.8 1.69 10.75a254.71 254.71 0 00-42.43 8.56z"/><path class="cls-2" d="M1192.82 917.65c-.42 4.58-2.93 8.09-5.61 7.84s-4.51-4.15-4.1-8.73 2.93-8.08 5.61-7.83 4.52 4.15 4.1 8.72z"/><path class="cls-2" d="M1187.43 923.8a3.4 3.4 0 01-2.65-2.21 8.84 8.84 0 01-.67-4.47c.32-3.52 2.26-6.13 4.43-6a3.4 3.4 0 012.65 2.21 8.84 8.84 0 01.67 4.47c-.32 3.55-2.26 6.2-4.43 6zm1-11.71c-1.6-.12-3.17 2.21-3.43 5.11a7.84 7.84 0 00.58 4 2.52 2.52 0 001.89 1.67c1.59.12 3.16-2.21 3.42-5.11a7.84 7.84 0 00-.58-4 2.52 2.52 0 00-1.89-1.67z"/><path class="cls-2" d="M1187.71 920.37c-1.11-.1-1.85-1.51-1.69-3.21s1.12-2.93 2.22-2.84c1.1.1 1.85 1.51 1.69 3.2-.15 1.69-1.12 2.93-2.22 2.85zm.44-5.12c-.49 0-1.11.81-1.22 2s.36 2.14.84 2.18c.49 0 1.11-.81 1.22-2 .11-1.2-.36-2.14-.84-2.19z"/></g><g id="DISH"><path id="DISH-2" data-name="DISH" class="cls-2" d="M918.21 892.6c0 2.15-13.91 4.11-36.42 5.53-22.72 1.43-54.2 2.32-89 2.32s-66.27-.89-89-2.32c-22.51-1.42-36.42-3.38-36.42-5.53 0-4.33 56.15-7.85 125.41-7.85s125.43 3.52 125.43 7.85z"/><path id="GREEN" class="cls-2" d="M808.17 873s9.08-20.21-8.57-18.86c-6.46.49-9.19 9.34-12.45 4.74s.59-13.44-14.81-11.37c-19.47 2.62-9.82 17-9.82 17s-2.53 7.54-10.86-4-22.55-1.33-19.51 7.84c2.17 6.49-17.69-1.22-14.77 13.76s20.91 8 29.42 7.2c7.37-.66 41.55-3.85 41.55-3.85s2.26-10.37 19.82-12.46z"/><g id="LEMON"><path class="cls-2" d="M800.65 872.1a1.13 1.13 0 01-1.23-1.05c-.9-10.88 6.37-19.28 16.19-20.62s18.6 4.86 20.62 15.58a1.13 1.13 0 01-.91 1.35z"/><path class="cls-7" d="M800.53 872.12c-1.41-10.31 6-17.8 15.62-19.12s17.89 4 19.3 14.34z"/><path class="cls-8" d="M813.18 859a.77.77 0 01.44-1.08 19.27 19.27 0 012.68-.55 18 18 0 012.72-.18.76.76 0 01.71.92l-1.56 8.41a.7.7 0 01-1.34.17z"/><path class="cls-2" d="M803.71 870.83a13.14 13.14 0 01.36-3.72.69.69 0 01.89-.52l7.35 2.44a.78.78 0 01-.1 1.49l-7.68 1.05a.75.75 0 01-.82-.74zm19.04-3.24l6.94-4.42a.71.71 0 011 .27A13 13 0 01832 867a.75.75 0 01-.59.94l-8.18 1.06a.78.78 0 01-.48-1.41z"/><path class="cls-8" d="M805.58 863.58a12.84 12.84 0 014.7-4.27.7.7 0 011 .3l4.26 7.64a.74.74 0 01-.86 1.1l-8.71-3.62a.8.8 0 01-.39-1.15zm14.22 2.71l2.25-8.08a.71.71 0 01.85-.52 12.67 12.67 0 015.49 2.88.79.79 0 01-.06 1.21l-7.43 5.37a.74.74 0 01-1.1-.86z"/></g><g id="FISH"><path class="cls-2" d="M856.9 898.07s1.13-30.85-28.09-33.78c-28.68-2.88-39.22 23.88-55 18.27-13.37-4.76-38.65.83-42 15.51.07 0 105.46 3.08 125.09 0z"/><path class="cls-2" d="M740.56 897.36s8.51-16.4 30.77-8.36c27.31 9.86 24.41-21.43 56.53-17 20.53 2.8 23 25.41 23 25.41"/><path class="cls-2" d="M748.14 897.36s3.63-4.66 13.26-4.66 14.17 5.77 14.17 5.77m41.08.78s.16-8.44 8.37-8.44a10 10 0 019.94 7.26"/><path class="cls-2" d="M805.13 899.25s7-14.44 20-14.44 14.36 13.26 14.36 13.26"/><path class="cls-2" d="M775.67 898.47s16.81.84 23.43-6.84c7.26-8.4 8.47-13.6 24.89-13.41 17.42.21 21.08 19.5 21.08 19.5"/></g><path id="GREEN-2" data-name="GREEN" class="cls-2" d="M802.64 907s-2.29-12.44 3.31-16.08 11.25.87 10.71 4.7 14-7.28 17.87-8.82c5.12-2 12.41-2.88 11.71 8.37S802.64 907 802.64 907z"/><g id="LEMON-2" data-name="LEMON"><path class="cls-2" d="M869.27 873.13a1.22 1.22 0 011.65.61c5.16 10.75 1.15 22.06-8.16 27.14s-20.54 2.12-26.76-8.1a1.22 1.22 0 01.38-1.72z"/><path class="cls-7" d="M869.39 873.07c5.45 10 1.79 19.46-7.36 24.45s-20.31 3.59-25.76-6.39z"/><path class="cls-8" d="M861.83 891.19a.84.84 0 010 1.26 20 20 0 01-2.47 1.58 19.57 19.57 0 01-2.65 1.21.84.84 0 01-1.08-.67l-1.72-9.16a.74.74 0 011.27-.68zm4.88-15.61a15 15 0 011.1 3.93.74.74 0 01-.7.87l-8.31.28a.84.84 0 01-.48-1.55l7.28-4a.81.81 0 011.11.47zm-17.82 10.49l-5.22 7.13a.75.75 0 01-1.1.1 14.85 14.85 0 01-2.73-3.07.81.81 0 01.23-1.17l7.79-4.25a.85.85 0 011.03 1.26zm18.78-2.39a13.6 13.6 0 01-3 6.13.74.74 0 01-1.07.06l-7.26-6.19a.8.8 0 01.44-1.44l10.14.4a.89.89 0 01.75 1.04zm-15.31 2.61l.9 9.09a.74.74 0 01-.65.84 13.46 13.46 0 01-6.62-.85.89.89 0 01-.42-1.26l5.35-8.29a.8.8 0 011.44.47z"/><path class="cls-2" d="M749.29 898.81a1.14 1.14 0 01.27 1.65c-6.64 8.66-18.15 9.69-26.92 3.72S711 887.4 716.7 878.07a1.16 1.16 0 011.64-.35z"/><path class="cls-7" d="M749.4 898.88c-5.85 8.6-16.84 8.89-25.45 3s-11.58-15.65-5.72-24.25z"/><path class="cls-8" d="M730.41 899.56a.76.76 0 01-1.08.48 22.49 22.49 0 01-2.52-1.49 23.08 23.08 0 01-2.3-1.79.77.77 0 01.06-1.19l6.94-5.09a.76.76 0 011.19.82z"/><path class="cls-7" d="M746 897.58a12.53 12.53 0 01-2.8 2.49.77.77 0 01-1.07-.25l-4.22-7a.77.77 0 011.09-1l6.85 4.67a.77.77 0 01.15 1.09zm-17.44-11.12L720 884.8a.78.78 0 01-.61-.9 12.6 12.6 0 011.29-3.55.78.78 0 011.11-.27l7.33 5a.76.76 0 01-.56 1.38z"/><path class="cls-8" d="M739.58 901.59a13.71 13.71 0 01-6.66-.18.78.78 0 01-.57-.9l1.77-8.66a.77.77 0 011.44-.19l4.52 8.84a.76.76 0 01-.5 1.09zM730 889.51l-7.28 4.37a.77.77 0 01-1-.23 13.52 13.52 0 01-2.45-6 .77.77 0 01.87-.85l9.59 1.31a.76.76 0 01.27 1.4z"/></g><path id="DISH-3" data-name="DISH" class="cls-2" d="M885.06 898.13l-18.22 15.2a24.36 24.36 0 01-15.61 5.56H733.11a24.39 24.39 0 01-15.62-5.56l-18.21-15.2h4.54c22.72 1.43 54.2 2.32 89 2.32s66.26-.89 89-2.32z"/></g><g id="MUSHROOMS"><path class="cls-2" d="M1169.88 960.65h-.26l-11.85-3.52-.81-.1 1.16-6.13 12 1.26z"/><path class="cls-2" d="M1169.77 965.86l-14.21-1.49 2.55-13.5 11.96 1.26-.3 13.73z"/><path class="cls-2" d="M1166.42 955l-5.33-.56c-6.71-.7-11.81-4.46-11.1-11.16.7-6.71 9-11.34 15.67-10.64l.83.09c6.7.71 13.82 6.95 13.12 13.66-.71 6.68-6.48 9.29-13.19 8.61zm-104.28-30.36l-2.36 1.59a17.87 17.87 0 00-6.34 8c-1.22 3.14-1.34 6.41.3 8.82 2.72 4 7.36 4.15 12 1.92l2.32 4.91a1.85 1.85 0 002.77.51l8-5.44a1.85 1.85 0 00.56-2.76l-3.72-4a13.51 13.51 0 003.34-4.53 7.35 7.35 0 00-.59-7.23c-3.18-4.86-10.64-5.63-16.28-1.79zm3.65 20.38c-2.89.93-5.45.44-6.38-.94-1.05-1.54.2-3.93 2.63-6.54zm9.93-6.75l-5.57-6.24c3.32-1.3 6-1.58 7 0 .99 1.34.5 3.9-1.43 6.24zm88.62-26.27l-1.45-1.62a13.64 13.64 0 00-6.77-4c-2.52-.61-5-.36-6.68 1.13-2.76 2.48-2.39 6-.21 9.36l-3.51 2.26a1.43 1.43 0 00-.09 2.16l4.95 5.53a1.43 1.43 0 002.16.14l2.63-3.24a10.35 10.35 0 003.79 2.08 5.64 5.64 0 005.44-1.2c3.4-2.91 3.24-8.66-.26-12.6zm-15.11 4.88c-1-2.11-.9-4.1 0-4.95s3-.25 5.24 1.33zm6.14 6.85l4.17-4.87c1.33 2.39 1.82 4.41.76 5.36s-2.95.78-4.93-.45zm-22.37 7.49l-.91.19-11.45 1.09-1 .15-1.16-6 11.58-3.25z"/><path class="cls-2" d="M1132.12 937.08l-8.13 2.29a2.7 2.7 0 01-3.37-2.08l-2.06-10.62 11.58-3.25 3.77 10.14a2.68 2.68 0 01-1.79 3.52z"/><path class="cls-2" d="M1127.8 927.41l-5.16 1.45c-6.49 1.82-12.62.22-14.44-6.28-1.83-6.49 4.14-13.84 10.63-15.67l.8-.22c6.5-1.82 15.42 1.35 17.24 7.85 1.82 6.46-2.58 11.05-9.07 12.87zm-29.22 24.1l-.7-.33-8-5c-.24-.12-.48-.25-.7-.38l2.24-4.5 9.22 3.69z"/><path class="cls-2" d="M1095 954.89l-6.47-2.59a2.21 2.21 0 01-1.16-3l4-8 9.21 3.69-2.62 8.53a2.22 2.22 0 01-2.96 1.37z"/><path class="cls-2" d="M1097.06 946.39l-4.11-1.64c-5.16-2.07-8.37-6.2-6.31-11.37 2.07-5.17 9.67-7 14.84-4.92l.64.25c5.17 2.07 9.42 8.63 7.35 13.8-2.07 5.17-7.24 5.95-12.41 3.88zm22.38 15.13l-.44-.09-5.19-1.74-.45-.11.63-3.26 5.66.68z"/><path class="cls-2" d="M1118.33 963.19l-4.54-.54a1.4 1.4 0 01-1.08-1.72l1.28-4.61 5.66.68.13 4.76a1.41 1.41 0 01-1.45 1.43z"/><path class="cls-2" d="M1117.87 958.55l-2.52-.31c-3.17-.37-5.54-2.41-5.11-6 .43-3.65 4.42-6.16 7.59-5.79l.39.05c3.18.38 6.47 3.77 6 7.41-.39 3.59-3.17 5.01-6.35 4.64z"/></g><g id="LEMON-3" data-name="LEMON"><path class="cls-3" d="M653.77 942.76c5.47 8.81 12.87 15.12 22.67 15.18l8.84.06c6.2 0 11.19-1.3 15.91-4.57 4.53-3.14 6-11.42 6-17.55 0-14.22-9.61-22.69-22-22.77l-6.88-.05c-9.07-.06-14.45 2.42-18.54 6.45-2.11 2.08-4.09 5.6-6.54 7.34-2.2 1.57-5.09 2.19-5.49 6.37s2.58 3.99 6.03 9.54z"/><ellipse class="cls-3" cx="691.91" cy="936.16" rx="13.34" ry="18.61"/><path d="M691.21 935.65a.49.49 0 010 .92l-8.5 3.39a1 1 0 01-1.38-.83 21.7 21.7 0 01-.09-5.29 1 1 0 011.38-.86zm4.58-13.38l-2.46 10a.49.49 0 01-.94 0l-3-9.91a1.05 1.05 0 01.7-1.35 8.47 8.47 0 012.41-.36 8.23 8.23 0 012.57.41 1 1 0 01.72 1.21zm-.13 27.73a1 1 0 01-.69 1.2 8.26 8.26 0 01-2.43.36 8.37 8.37 0 01-2.73-.46 1 1 0 01-.64-1.36l3.56-9.67a.49.49 0 01.94.07zM691 938.72a.49.49 0 01.64.66l-4.4 9a1 1 0 01-1.69.24 16.08 16.08 0 01-3-5 1 1 0 01.59-1.34zm.7-5.47a.49.49 0 01-.65.64l-8.05-3.63a1.05 1.05 0 01-.59-1.33 15.79 15.79 0 013.44-5.64 1 1 0 011.69.31zm12.23 2.87a23 23 0 01-.16 2.65 1 1 0 01-1.41.86l-7.36-3.06a.48.48 0 010-.91l7.42-2.35a1 1 0 011.42.89c.06.63.09 1.27.09 1.92zm-1.19 7.07a16.66 16.66 0 01-2.43 4.54 1 1 0 01-1.75-.17l-4-8.18a.49.49 0 01.64-.66l6.9 3.15a1.05 1.05 0 01.64 1.32zm-.49-12.53l-7.09 3.22a.49.49 0 01-.65-.64l3.81-8.8a1 1 0 011.75-.24 16.43 16.43 0 012.77 5.16 1 1 0 01-.59 1.3z" stroke-width="2" stroke="#000" fill="#efaf00" stroke-linecap="round" stroke-linejoin="round"/><path class="cls-2" d="M954 939.64s-1.68-15.33 14.3-9.06c5.85 2.3 5.42 8.63 10 6.78s15.76-8.51 29.39-2.49c17.26 7.63-8.33 13.54-8.33 13.54s-.18 4.67 11.44.08 15.54 2.19 9.63 6.93c-4.18 3.37 11 1.16 3.25 9.54-4.1 4.44-13.58 5.32-26.38.55-10.72-4-9.36 4.55-22.25 4.31-21.25-.39-21.82-16.88-21.82-16.88s16.43-6.57.77-13.3z"/><path class="cls-2" d="M935.35 948s-10.2-10.78 3.3-16.19c4.94-2 11.17 3.82 12.45.27s-3.81-6.87 8.18-11.11c15.18-5.37 11.58 5.52 11.58 5.52s3.78 3.1 7.09-5.86 16.73-5.72 16.76.16c0 4.16 12.93-6.21 14.51 2.68s-12 15.86-18.34 18.84A148 148 0 01948 954.57s-7.57-.81-12.65-6.57z"/><path class="cls-7" d="M965.3 935.49l.27-.08.29-.09L967 935h.22c7.11-1.75 13.9-.93 18.25 1.82a18.62 18.62 0 014.39 5.33c0 .08 0 .16.07.24 2.15 7.22-5.26 15.8-16.56 19.17s-22.21.25-24.36-7a9.71 9.71 0 01.18-5.86 18 18 0 012.73-4.78l.05-.06a28 28 0 0113.03-8.29z"/><ellipse class="cls-7" cx="969.28" cy="947.86" rx="18.61" ry="11.31" transform="rotate(-16.61 969.165 947.788)"/><path class="cls-7" d="M946.66 941l.26-.08.29-.09 1.11-.31.23-.06c7.08-1.82 13.88-1.09 18.27 1.62a18.66 18.66 0 014.45 5.27c0 .08.05.16.07.24 2.24 7.19-5.08 15.86-16.33 19.36s-22.21.51-24.44-6.68a9.59 9.59 0 01.11-5.85 18.19 18.19 0 012.67-4.82v-.06a28 28 0 0113-8.46c.13.02.22 0 .31-.08z"/><ellipse class="cls-7" cx="950.78" cy="953.37" rx="18.61" ry="11.31" transform="rotate(-17.27 950.98 953.511)"/></g><g id="BASKET_VEGETABLES" data-name="BASKET &amp; VEGETABLES"><g id="CARROT"><path class="cls-2" d="M429.19 802.06s12.09-20.07 31.26-14m-24.15 5.35s7.73-.49 6.05 3.33c-1.06 2.41-10.71.84-10.71.84s.33-10.61 4.58-10.52c3.37.07.08 6.35.08 6.35z"/><path class="cls-2" d="M442.13 789.32s7.07.78 4.51 3c-1.3 1.16-9.29.21-9.29.21s3.6-9.44 7-9.73-2.22 6.52-2.22 6.52z"/><path class="cls-2" d="M451.31 786.83s5.51 1.89 3.6 3.71c-.93.88-8.41-2.65-8.41-2.65s3.38-6.09 6.67-5.1c2.17.65-1.86 4.04-1.86 4.04z"/><path class="cls-2" d="M453.78 786.77s12.14-3.3 11.5 1.76c-.48 3.82-11.5-1.76-11.5-1.76zm-26.86 25.14s2.09-23-17.35-28.31"/><path class="cls-2" d="M423.91 794.47s-6.29-3.16-5.54.08c.38 1.64 7.52 5.16 7.52 5.16s2.7-9.71.05-11.79-2.03 6.55-2.03 6.55z"/><path class="cls-2" d="M417.85 787.49s-5.67-1.42-5.19 1.11c.23 1.23 8.5 2.34 8.5 2.34s.88-6.83-2.42-7.78c-2.17-.64-.89 4.33-.89 4.33z"/><path class="cls-2" d="M415.85 786.1s-8-9.24-10.53-4.73c-1.89 3.4 10.53 4.73 10.53 4.73zm9.96 14.79s11.77-21.84-3.44-34.44"/><path class="cls-2" d="M429.88 781.53s-3.7-4.87-4.48-1.64c-.4 1.64 4.48 7.69 4.48 7.69s6.66-6.53 4.36-10.94c-1.53-2.91-4.36 4.89-4.36 4.89z"/><path class="cls-2" d="M428.11 773.29s-4.5-3.56-5.2-1.08c-.35 1.2 6.64 5.54 6.64 5.54s3.88-5.82 1.32-8c-1.68-1.46-2.76 3.54-2.76 3.54z"/><path class="cls-2" d="M426.92 771.24s-3.09-11.58-7.4-8.51c-3.25 2.27 7.4 8.51 7.4 8.51z"/><path class="cls-7" d="M386.56 925.49a4.55 4.55 0 01-3.3-5.35l26.14-111c1.62-6.59 8.81-10.5 15.66-8.51l3.47 1c6.85 2 10.5 9 7.93 15.35l-44 105.8a4.9 4.9 0 01-5.9 2.71z"/><path class="cls-2" d="M447.1 831.26s16-17.55 33.53-8.17m-24.79.91s7.69.89 5.26 4.34c-1.53 2.18-10.68-1.07-10.68-1.07s2.48-10.36 6.64-9.52c3.29.7-1.22 6.25-1.22 6.25z"/><path class="cls-2" d="M462.4 821.05s6.78 2 3.8 3.8c-1.51.89-9.16-1.45-9.16-1.45s5.47-8.63 8.89-8.31-3.53 5.96-3.53 5.96z"/><path class="cls-2" d="M471.91 820.24s5 2.83 2.78 4.28c-1.09.7-7.71-4.09-7.71-4.09s4.56-5.38 7.58-3.83c2 1.02-2.65 3.64-2.65 3.64z"/><path class="cls-2" d="M471.6 819.83s12.59-1.08 10.93 3.77c-1.25 3.67-10.93-3.77-10.93-3.77zm-28.74 20.7s6.75-22.23-11.25-30.87"/><path class="cls-2" d="M443.46 822.87s-5.53-4.21-5.45-.9c0 1.69 6.33 6.41 6.33 6.41s4.63-9.06 2.45-11.57-3.33 6.06-3.33 6.06z"/><path class="cls-2" d="M438.94 815s-5.28-2.4-5.32.17c0 1.24 7.87 3.81 7.87 3.81s2.25-6.55-.79-8.08c-2.01-1.05-1.76 4.1-1.76 4.1z"/><path class="cls-2" d="M437.26 813.23s-6-10.49-9.37-6.51c-2.55 3.01 9.37 6.51 9.37 6.51zm6.74 16.29s16-19.36 3.65-34.42"/><path class="cls-2" d="M452 811.23s-2.64-5.44-4.07-2.41c-.73 1.55 2.83 8.35 2.83 8.35s7.87-5.23 6.51-10c-.93-3.1-5.27 4.06-5.27 4.06z"/><path class="cls-2" d="M451.91 802.83s-3.69-4.29-4.89-2c-.58 1.12 5.4 6.61 5.4 6.61s5-5 2.93-7.63c-1.35-1.7-3.44 3.02-3.44 3.02z"/><path class="cls-2" d="M451.16 800.6s-.67-11.91-5.53-9.66c-3.63 1.69 5.53 9.66 5.53 9.66z"/><path class="cls-7" d="M380.06 944.89a4.42 4.42 0 01-2.15-5.83l48.31-104.33c2.93-6.18 10.79-8.74 17.11-5.58l3.2 1.61a11.32 11.32 0 014.66 16.48l-64.8 96.07a5 5 0 01-6.33 1.58z"/><path class="cls-2" d="M385.48 831.12s6.52-17.34 24.46-15.38M390 823.38s6.64-1.51 5.94 1.71c-.44 2-9.17 2.2-9.17 2.2s-1.84-8.29 1.88-8.84c2.91-.45 1.35 4.93 1.35 4.93z"/><path class="cls-2" d="M394.21 819.35s6.33-.41 4.55 1.72c-.91 1.08-8.07 1.5-8.07 1.5s1.26-7.86 4.19-8.58-.67 5.36-.67 5.36z"/><path class="cls-2" d="M401.72 816.09s5.19.67 3.88 2.36c-.63.83-7.86-.84-7.86-.84s1.73-5.22 4.79-4.93c2.02.19-.81 3.41-.81 3.41z"/><path class="cls-2" d="M403.86 815.69s9.94-4.32 10.39-.29c.35 3.03-10.39.29-10.39.29zm-18.39 23.41s-2.79-18.19-20.8-19.49"/><path class="cls-2" d="M379.35 826s-6.12-1.54-4.81.87c.66 1.22 7.59 2.93 7.59 2.93s.41-7.94-2.32-9.18-.46 5.38-.46 5.38z"/><path class="cls-2" d="M372.66 821.43s-5.22-.28-4.3 1.62c.45.92 7.89.59 7.89.59s-.6-5.43-3.67-5.7c-2.03-.18.08 3.49.08 3.49z"/><path class="cls-2" d="M370.64 820.65s-8.84-6-10.13-2.16c-.97 2.92 10.13 2.16 10.13 2.16zm11.65 10.05s5.9-18.68-9.89-26.27"/><path class="cls-2" d="M382 815.07s-4.21-3.26-4.24-.63c0 1.33 5.45 5.33 5.45 5.33s4.5-6 1.61-9.13c-1.95-2.05-2.82 4.43-2.82 4.43z"/><path class="cls-2" d="M378.77 808.92s-4.63-2.11-4.75-.09c-.06 1 6.91 3.34 6.91 3.34s2.21-5.08-.46-6.41c-1.76-.88-1.7 3.16-1.7 3.16z"/><path class="cls-2" d="M377.32 807.5s-5-8.56-8.15-5.55c-2.37 2.27 8.15 5.55 8.15 5.55z"/><path class="cls-7" d="M377.93 945.36c-2.51-.08-4.54-1.76-4.65-3.86l-5.44-100.38c-.26-6 5.59-10.84 12.75-10.61l3.61.12c7.16.23 12.62 5.48 11.89 11.42l-13.22 99.76c-.28 2.09-2.43 3.63-4.94 3.55z"/></g><g id="ONION-2" data-name="ONION"><path class="cls-2" d="M283.94 934.26l-3.33 1.62c-21.93-43.31-39.5-123.39-39.68-124.19l3.64-.75c.18.8 17.66 80.43 39.37 123.32z"/><path class="cls-2" d="M290.55 933.54l-3.11 2c-9.36-14-22.51-40.42-31.95-86.45a435.93 435.93 0 01-7.32-49.47l3.71-.25a435.77 435.77 0 007.27 49.06c5.15 25.07 14.77 60.19 31.4 85.11z"/><path class="cls-2" d="M281.61 935.71l-3.61.91c-.05-.18-4.91-18.32-16.3-42.62-10.48-22.39-28.81-54.74-56.55-81.71l2.61-2.59c28.17 27.38 46.74 60.17 57.36 82.86 11.51 24.58 16.44 42.97 16.49 43.15z"/><path class="cls-2" d="M285.81 931.06l-3.42 1.44-60.12-136.02 3.41-1.45 60.13 136.03z"/><path class="cls-2" d="M278 936.51s-4.37-14.66-10.67-29.72c0 0 2.47-5.3 7.87-3.45a197.55 197.55 0 0015.45 30.15z"/><ellipse class="cls-2" cx="284.4" cy="935.44" rx="6.5" ry="3.8" transform="rotate(-9.23 284.412 935.376)"/><path class="cls-2" d="M314.61 935.14l-3.16 1.91c-21.58-50.61-39.55-144.33-39.73-145.27l3.46-.9c.18.94 18.05 94.12 39.43 144.26z"/><path class="cls-2" d="M320.91 934.27l-2.91 2.35c-9.15-16.39-22.1-47.23-31.8-101.1-5.79-32.13-7.7-57.66-7.72-57.92l3.54-.31c0 .25 1.92 25.54 7.67 57.44 5.31 29.34 14.97 70.43 31.22 99.54z"/><path class="cls-2" d="M312.4 936.85l-3.4 1.09a388 388 0 00-16.2-49.85c-10.35-26.17-28.33-64-55.22-95.42l2.46-3c27.3 31.93 45.53 70.25 56 96.77a393.08 393.08 0 0116.36 50.41z"/><path class="cls-2" d="M316.34 931.38l-3.24 1.71-66.19-175.28 3.24-1.71 66.19 175.28z"/><path class="cls-2" d="M309.23 939s-4.68-18.3-10.92-35.91c0 0 2.27-6.21 7.46-4.08A259.06 259.06 0 00321 934.2z"/><path class="cls-2" d="M314.47 932.11c3.35-.78 6.33.57 6.66 3s-2.11 5-5.46 5.82-6.33-.57-6.66-3 2.12-5.05 5.46-5.82zm-14.96-10.09l-10.1-1.46-60.91-172.11 3.24-1.71 67.77 175.28z"/><path class="cls-2" d="M290.93 929.09s-4.79-17.8-11-35.4c0 0 2.14-5.73 7.33-3.6a279.63 279.63 0 0015.33 34.75z"/><path class="cls-2" d="M296.37 923.64c3.32-.86 6.13 0 6.27 1.83s-2.44 4.08-5.77 4.93-5.92 0-6.07-1.87 2.2-4.04 5.57-4.89z"/></g><g id="MUSHROOMS-2" data-name="MUSHROOMS"><path class="cls-2" d="M341.88 915.85l7.34-4.18a2.69 2.69 0 013.77 1.21l4.56 9.81-10.46 5.95-6.1-8.93a2.69 2.69 0 01.89-3.86z"/><path class="cls-2" d="M348.4 924.2l4.66-2.65c5.86-3.34 12.2-3.26 15.53 2.61 3.34 5.86-.68 14.43-6.54 17.77l-.73.41c-5.86 3.33-15.28 2.4-18.62-3.46-3.33-5.88-.16-11.35 5.7-14.68zm-15.72-.36l-6.84.11a2.17 2.17 0 01-2.21-2.33l.59-8.74 9.74-.15.86 8.72a2.18 2.18 0 01-2.14 2.39z"/><path class="cls-2" d="M331.3 915.37l-4.34.07c-5.47.08-9.94-2.44-10-7.91-.09-5.46 6.11-10 11.57-10.08h.68c5.46-.08 11.8 4.25 11.88 9.72.06 5.45-4.33 8.12-9.79 8.2zm32.09-12.47l-5.84 3.57a2.18 2.18 0 01-3.08-.89l-3.94-7.83 8.32-5.08 5.17 7.09a2.17 2.17 0 01-.63 3.14z"/><path class="cls-2" d="M357.9 896.3l-3.7 2.27c-4.67 2.84-9.81 2.93-12.65-1.73-2.85-4.67.19-11.71 4.86-14.56l.57-.35c4.67-2.85 12.33-2.33 15.17 2.34 2.85 4.66.42 9.19-4.25 12.03zM303 859.4l-3.86-2.93a1.55 1.55 0 01-.22-2.26l4.15-4.62 5.5 4.17-3.38 5.24a1.54 1.54 0 01-2.19.4z"/><path class="cls-3" d="M305.89 854.07l-2.45-1.86c-3.08-2.34-4.47-5.7-2.13-8.78 2.34-3.08 7.77-2.9 10.85-.56l.38.29c3.08 2.34 4.72 7.52 2.38 10.6s-5.92 2.65-9.03.31z"/><path class="cls-2" d="M314.68 895.24l-7.66-6a3 3 0 01-.51-4.35l7.89-8.45 10.91 8.56-6.31 9.68a3 3 0 01-4.32.56z"/><path class="cls-2" d="M320.17 885.32l-4.86-3.79c-6.11-4.78-9-11.35-4.53-17 4.43-5.68 15-4.81 21.16 0l.75.59c6.11 4.78 9.53 14.86 5.1 20.54-4.44 5.61-11.5 4.43-17.62-.34zm36.51-14.74l-8.76 2.19a2.87 2.87 0 01-3.53-2.32L342.52 859l12.48-3.07 3.71 10.94a2.87 2.87 0 01-2.03 3.71z"/><path class="cls-3" d="M352.37 860.12l-5.56 1.39c-7 1.74-13.49-.16-15.24-7.15-1.74-7 4.86-14.67 11.85-16.41l.86-.22c7-1.74 16.43 1.92 18.17 8.92 1.75 6.99-3.09 11.72-10.08 13.47z"/></g><g id="BASKET"><path class="cls-2" d="M388.11 946.62H299c-22 0-41-13.62-45.58-32.62l-14.74-61.61h209.77L433.72 914c-4.55 19-23.58 32.62-45.61 32.62zm-114.99-6.93l-16.58-87.35"/><path class="cls-2" d="M293.73 946.61a62.48 62.48 0 01-2.72-9.9l-15.82-84.37m37.29 94.55a61.07 61.07 0 01-2.82-10.18l-15.83-84.37m37.24 94.42a61.71 61.71 0 01-2.77-10l-15.83-84.37m37.26 94.42a62.34 62.34 0 01-2.79-10.1l-15.82-84.37m37.29 94.51a60.78 60.78 0 01-2.83-10.14l-15.82-84.37m37.17 94.22a61.55 61.55 0 01-2.7-9.85l-15.83-84.37m36.32 91.73a60.93 60.93 0 01-1.85-7.36l-15.82-84.37m34.09 82.5l-15.45-82.5m28.45 60.2l-9.81-60.2"/></g></g><g id="COOK_S_RIGHT_HAND" data-name="COOK'S RIGHT HAND"><path id="HAND-2" data-name="HAND" d="M1163.62 697.66c.4 19-13.63 147.64-33.31 165.12-20.12 17.88-107.42 30-176.88 36.09 0 0 5.89-27.34-20.42-31.86 0 0 95.36-44.49 120.58-46.84 0 0 21-106.74 34.38-130.81 20.83-37.36 74.56-44.73 75.65 8.3z" fill="#efaf00"/><g id="LINES"><path class="cls-11" d="M975.2 846.6c28.81-11.16 69-25.13 82.93-26.43 0 0 10.64-92.75 24.07-116.82"/><path class="cls-11" d="M1170.57 696.77c1.87 60.1-21.42 154.31-47.84 173.66-8.13 6-139 26.29-147.7 26.91"/></g><path id="ARM-2" data-name="ARM" class="cls-5" d="M953.32 898.3c-4.76 4.35-29.49 20.75-42.14 23.08-8 1.47-22.56-3.69-24.36-4.78s-12-14.66-12-14.66 5.91-5.86 12.46-.32c8.41 7.12 16.51 3.53 21.78-.89 2.19-1.84 4.8-6.85 1.8-9.4s-10.91 4.22-14.17 4.47c-6.62.51-8.56-2.68-8.56-2.68s13.36-13 16-14.92 18.39-11.19 32.44-11c11.23.17 27.79 21.02 16.75 31.1z"/><path id="CUFF-2" data-name="CUFF" class="cls-3" d="M933 867l17.65-8s22.81 8.27 24.37 39.58l-21.6.33S950 874.53 933 867z"/></g><g id="LAMP"><circle class="cls-3" cx="1008.33" cy="370.66" r="29.52"/><path class="cls-2" d="M1008.73 195.27v131.64m94.07 38.2H914.66l54.42-28.76a84.83 84.83 0 0139.65-9.83 84.76 84.76 0 0139.64 9.83z"/></g><g id="SHELVES"><g id="BUTTOM_SHELF" data-name="BUTTOM SHELF"><g id="JARS"><path class="cls-2" d="M360.87 434.79v2.94a2.59 2.59 0 01-1.8 2.46v1.08a2.59 2.59 0 01-2.59 2.59h-22.36a2.58 2.58 0 01-2.59-2.59v-1.08a2.58 2.58 0 01-1.8-2.46v-2.94a2.59 2.59 0 012.59-2.59h26a2.59 2.59 0 012.55 2.59z"/><path class="cls-2" d="M331.41 439.53h27.78a16 16 0 0116 16v58.9a7.67 7.67 0 01-7.67 7.67H323a7.67 7.67 0 01-7.67-7.67v-58.9a16 16 0 0116.08-16z"/><path class="cls-3" d="M370.9 487.52v22.88a7.47 7.47 0 01-7.46 7.47h-36.28a7.47 7.47 0 01-7.46-7.47v-22.88c0-2.26 11.46-6.43 25.6-6.43s25.6 4.17 25.6 6.43z"/><path class="cls-2" d="M435.13 434.79v2.94a2.59 2.59 0 01-1.79 2.46v1.08a2.6 2.6 0 01-2.59 2.59h-22.37a2.58 2.58 0 01-2.59-2.59v-1.08a2.58 2.58 0 01-1.8-2.46v-2.94a2.59 2.59 0 012.59-2.59h26a2.59 2.59 0 012.55 2.59z"/><path class="cls-2" d="M405.67 439.53h27.78a16 16 0 0116 16v58.9a7.67 7.67 0 01-7.67 7.67H397.3a7.67 7.67 0 01-7.67-7.67v-58.9a16 16 0 0116.04-16z"/><path class="cls-7" d="M445.16 484.83v23c0 5.54-3.34 10-7.46 10h-36.27c-4.13 0-7.47-4.5-7.47-10v-26.89c0-5.63 10.8-13.76 30.73-9.06 16.85 3.98 20.47 12.95 20.47 12.95z"/></g><g id="SPICE-2" data-name="SPICE"><path class="cls-2" d="M485.82 488.26h8.11A10.06 10.06 0 01504 498.32v14.34a7.91 7.91 0 01-7.91 7.91h-12.42a7.91 7.91 0 01-7.91-7.91v-14.34a10.06 10.06 0 0110.06-10.06z"/><path class="cls-4" d="M486.26 488.26H495a9.74 9.74 0 019.74 9.74v14.42a8.15 8.15 0 01-8.15 8.15h-11.92a8.15 8.15 0 01-8.15-8.15V498a9.74 9.74 0 019.74-9.74z"/><path class="cls-2" d="M477.71 488.26h8.75a9.74 9.74 0 019.74 9.74v14.42a8.15 8.15 0 01-8.15 8.15h-11.93a8.15 8.15 0 01-8.15-8.15V498a9.74 9.74 0 019.74-9.74z"/><path class="cls-2" d="M472.88 498.56h18.1v11.3h-18.1z"/><path class="cls-4" d="M491.44 475.46h-5.09c-3.92 0-6.6 4.26-5.16 8.18l1.68 4.59h12.05l1.68-4.59c1.4-3.92-1.25-8.18-5.16-8.18z"/><path class="cls-2" d="M485.93 475.46h-5.09c-3.92 0-6.6 4.26-5.16 8.18l1.68 4.59h12.05l1.68-4.59c1.44-3.92-1.25-8.18-5.16-8.18zm46.98 12.8H541a10.06 10.06 0 0110.06 10.06v14.34a7.91 7.91 0 01-7.91 7.91h-12.39a7.91 7.91 0 01-7.91-7.91v-14.34a10.06 10.06 0 0110.06-10.06z"/><path class="cls-4" d="M533.36 488.26h8.75a9.74 9.74 0 019.74 9.74v14.42a8.15 8.15 0 01-8.15 8.15h-11.94a8.15 8.15 0 01-8.15-8.15V498a9.74 9.74 0 019.75-9.74z"/><path class="cls-2" d="M524.8 488.26h8.75a9.74 9.74 0 019.75 9.74v14.42a8.15 8.15 0 01-8.15 8.15h-11.94a8.15 8.15 0 01-8.15-8.15V498a9.74 9.74 0 019.74-9.74z"/><path class="cls-2" d="M519.97 498.56h18.1v11.3h-18.1z"/><path class="cls-4" d="M538.92 475.46h-4.69c-3.92 0-6.6 4.26-5.16 8.18l1.68 4.59h11.65l1.68-4.59c1.44-3.92-1.24-8.18-5.16-8.18z"/><path class="cls-2" d="M532.63 475.46h-4.7c-3.92 0-6.6 4.26-5.16 8.18l1.68 4.59h11.66l1.68-4.59c1.44-3.92-1.25-8.18-5.16-8.18zm47.37 12.8h8.11a10.06 10.06 0 0110.06 10.06v14.34a7.91 7.91 0 01-7.91 7.91h-12.41a7.91 7.91 0 01-7.91-7.91v-14.34A10.06 10.06 0 01580 488.26z"/><path class="cls-4" d="M580.45 488.26h8.75a9.74 9.74 0 019.74 9.74v14.42a8.15 8.15 0 01-8.15 8.15h-11.94a8.15 8.15 0 01-8.15-8.15V498a9.74 9.74 0 019.75-9.74z"/><path class="cls-2" d="M571.9 488.26h8.75a9.74 9.74 0 019.74 9.74v14.42a8.15 8.15 0 01-8.15 8.15H570.3a8.15 8.15 0 01-8.15-8.15V498a9.74 9.74 0 019.75-9.74z"/><path class="cls-2" d="M567.07 498.56h18.1v11.3h-18.1z"/><path class="cls-4" d="M585.62 475.46h-5.87c-3.92 0-6.61 4.26-5.17 8.18l1.69 4.59h12.83l1.68-4.59c1.44-3.92-1.24-8.18-5.16-8.18z"/><path class="cls-2" d="M579.32 475.46H575c-3.91 0-6.6 4.26-5.16 8.18l1.68 4.59h11.28l1.69-4.59c1.43-3.92-1.25-8.18-5.17-8.18z"/></g><g id="SAUCES"><path class="cls-2" d="M681.69 439.32h-1.89a2.26 2.26 0 01.24 1v1.73a1.57 1.57 0 01-1.57 1.57h-9.55a1.57 1.57 0 01-1.58-1.57v-1.73a2.4 2.4 0 01.24-1h-2V436a2.32 2.32 0 012.32-2.32h11.44a2.32 2.32 0 012.32 2.32zm7.55 44.49l-2 29.09a4.84 4.84 0 01-4.76 4.57H664.8a4.83 4.83 0 01-4.75-4.57l-2-29.09z"/><path class="cls-2" d="M692.83 475.46L690 515.63a5.73 5.73 0 01-5.7 5.37H663a5.73 5.73 0 01-5.72-5.33l-2.81-40.17a9.33 9.33 0 013.9-8.27 10.76 10.76 0 004.62-8.81l-.13-15.1a3.8 3.8 0 013.79-4h14a3.79 3.79 0 013.79 4l-.13 15.1a10.78 10.78 0 004.62 8.8 9.36 9.36 0 013.9 8.24z"/><path class="cls-2" d="M683.49 499.84c-.3 1.67-4.61 3.78-9.87 3.78s-9.57-2.11-9.87-3.78v-21.15c.54-1.6 4.74-3.62 9.83-3.62s9.29 2 9.83 3.62zm51.64-55.4v1a2.15 2.15 0 01-2.15 2.15v3.27a2.23 2.23 0 01-2.23 2.24h-4.31a2.23 2.23 0 01-2.23-2.24v-3.27a2.15 2.15 0 01-2.15-2.15v-1a2.15 2.15 0 012.15-2.15H733a2.15 2.15 0 012.13 2.15zm11.55 55.62c0 4.64-2.81 11.7-5.37 15.86a3.26 3.26 0 01-2.77 1.54h-18.22a3.25 3.25 0 01-2.79-1.57c-2.56-4.28-5.37-11.85-5.37-16.49a25.16 25.16 0 011.3-8.24h31.75a26.08 26.08 0 011.47 8.9z"/><path class="cls-4" d="M749.93 499.89c0 5.52-3.34 13.91-6.39 18.85a3.84 3.84 0 01-3.28 1.83h-21.65a3.86 3.86 0 01-3.31-1.87c-3-5.09-6.38-14.07-6.38-19.58 0-11.06 5-19.27 13.61-22.6v-21.76l-4.66-7.14h18.44v28.9c8.6 3.32 13.62 12.32 13.62 23.37z"/><path class="cls-2" d="M736.31 453.13h6.16a6 6 0 015.68 8.11l-6.64 18.24m-99.9-13.54v52.49a2.53 2.53 0 01-2.53 2.53h-20a2.53 2.53 0 01-2.53-2.53v-52.49a7.58 7.58 0 016.14-7.45V446h12.78v12.52a7.58 7.58 0 016.14 7.42z"/><path class="cls-4" d="M637.93 473.49V515a2.6 2.6 0 01-2.41 2.75h-12.88a2.6 2.6 0 01-2.42-2.75v-41.51z"/><rect class="cls-2" x="619.83" y="444.01" width="18.49" height="4.06" rx="1.17"/></g><g id="SHELF"><path class="cls-2" d="M308.37 546.73h-26.54v13.23l26.54-4.08v-9.15zm-.4 41.15h439.61"/><path class="cls-2" d="M261.14 522.52h534.07v24.22H261.14z"/><path class="cls-2" d="M281.84 546.73h26.53v41.15h-26.53zm493.08 0h-26.54v13.23l26.54-4.08v-9.15z"/><path class="cls-2" d="M748.38 546.73h26.53v41.15h-26.53z"/></g><g id="KNIVES"><path class="cls-2" d="M356.08 622.06v47.32c0 17.29 4.5 29.53 13.17 45.06s15.09-44.48 16.19-86.9z"/><path class="cls-2" d="M369.25 624.47l-13.17-2.41V578c0-3.19 2.94-5.77 6.58-5.77s6.59 2.58 6.59 5.77zm59.48-2.41h-17.31v92.38s17.31-30.75 17.31-92.38zm-4.14 0h-13.17V578c0-3.19 2.95-5.77 6.59-5.77 3.64 0 6.58 2.58 6.58 5.77zm51.41 5.29a2.21 2.21 0 000 3.28.88.88 0 010 1.33 2.21 2.21 0 000 3.28.88.88 0 010 1.33 2.21 2.21 0 000 3.28.88.88 0 010 1.33 2.21 2.21 0 000 3.28.88.88 0 010 1.33 2.21 2.21 0 000 3.28.88.88 0 010 1.33 2.21 2.21 0 000 3.28.88.88 0 010 1.33 2.21 2.21 0 000 3.28.88.88 0 010 1.33 2.21 2.21 0 000 3.28.88.88 0 010 1.33 2.21 2.21 0 000 3.28.87.87 0 010 1.32 2.19 2.19 0 00-.72 1.63 2.22 2.22 0 00.74 1.65.87.87 0 010 1.32 2.19 2.19 0 00-.72 1.63 2.23 2.23 0 00.74 1.65.87.87 0 010 1.32 2.19 2.19 0 00-.72 1.63 2.23 2.23 0 00.74 1.65.88.88 0 010 1.32 2.2 2.2 0 000 3.27.88.88 0 010 1.33 2.22 2.22 0 000 3.29.87.87 0 010 1.32 2.21 2.21 0 000 3.28.88.88 0 010 1.33 2.21 2.21 0 000 3.28.88.88 0 010 1.33 2.21 2.21 0 000 3.28.88.88 0 010 1.33 2.21 2.21 0 000 3.28.88.88 0 010 1.33 2.8 2.8 0 00-.72 1.63c0 .5 0 2.31 1.36 2.31h-.63c-11.21 0-20.3-8-20.3-17.78v-74.6h20.93c-.68 0-.19.25-.64.67a2.21 2.21 0 000 3.28.88.88 0 010 1.33z"/><path class="cls-2" d="M468.92 622.06h-13.17V578c0-3.19 2.94-5.77 6.58-5.77s6.59 2.58 6.59 5.77zm69.73 28.39a108.45 108.45 0 01-4.12 28.19h-31.16a3.06 3.06 0 01-3.28-3.46 116.26 116.26 0 002.5-24.73 110.5 110.5 0 00-3.4-28.39h35.29a108.68 108.68 0 014.17 28.39zm-26.36-28.39h-13.17V578c0-3.19 2.95-5.77 6.59-5.77 3.64 0 6.58 2.58 6.58 5.77zm68.32-.4c-.49 32.21-15.63 55.76-15.63 55.76v-55.76zm-5.49 0H565v-44.11a5.22 5.22 0 015.07-5.36 5.22 5.22 0 015.07 5.36zM641 638.79a2.77 2.77 0 01-2.79 2.74h-.38a22.41 22.41 0 00.18-2.86c0-11.13-8-20.16-17.82-20.16s-17.83 9-17.83 20.16a22.41 22.41 0 00.18 2.86h-.39a2.77 2.77 0 01-2.78-2.75c0-8.88 4.34-16.6 10.74-20.62a11.34 11.34 0 005.4-9.6v-31.35a4.86 4.86 0 014.67-5 4.48 4.48 0 013.3 1.47 5.19 5.19 0 011.37 3.55v31.36a11.37 11.37 0 005.4 9.6c6.4 4 10.75 11.72 10.75 20.6z"/><path class="cls-12" d="M634.37 636.9H606a3.66 3.66 0 00-3.66 3.67v3.27a3.66 3.66 0 003.66 3.66h28.39a3.66 3.66 0 003.66-3.66v-3.27a3.66 3.66 0 00-3.68-3.67zm.46 7.28h-29.32v-3.81h29.32z"/><path class="cls-2" d="M689.56 618.93h-10.14v-41.67a5.07 5.07 0 015.07-5.07 5.07 5.07 0 015.07 5.07z"/><circle class="cls-2" cx="684.49" cy="642.83" r="19.29" transform="rotate(-45 684.496 642.823)"/><circle class="cls-2" cx="684.49" cy="642.85" r="3.72" transform="rotate(-76.68 684.441 642.847)"/><path class="cls-6" d="M663.08 631.73a24.12 24.12 0 0142.83 0"/><path class="cls-2" d="M684.49 618.71v24.14"/></g></g><g id="TOP_SHELF" data-name="TOP SHELF"><g id="SHELF-2" data-name="SHELF"><path class="cls-2" d="M306.07 389.83h-25.46v13.23l25.46-4.09v-9.14z"/><path class="cls-2" transform="rotate(180 528.175 377.715)" d="M261.14 365.61h534.07v24.22H261.14z"/><path class="cls-2" transform="rotate(180 762.62 410.4)" d="M749.89 389.83h25.46v41.15h-25.46z"/><path class="cls-2" d="M775.35 389.83h-25.46v13.23l25.46-4.09v-9.14z"/><path class="cls-2" transform="rotate(180 293.34 410.4)" d="M280.61 389.83h25.46v41.15h-25.46z"/></g><path id="SCOOP" class="cls-2" d="M775.18 288.41a1.6 1.6 0 01-1.61 1.61h-44.05v10.37a9.44 9.44 0 01-9.44 9.44h-4.34a9.43 9.43 0 01-9.44-9.44V286.8h67.27a1.62 1.62 0 011.61 1.61z"/><g id="GRATER"><path class="cls-2" d="M674.69 365.49h-12.05l-11.66-83.15h12.05l11.66 83.15zm-12.05 0h-56.61l11.67-83.15h33.28l11.66 83.15z"/><rect class="cls-2" x="623.94" y="292.35" width="3.56" height="7.16" rx="1.73"/><rect class="cls-2" x="632.1" y="292.35" width="3.56" height="7.16" rx="1.73"/><rect class="cls-2" x="640.27" y="292.35" width="3.56" height="7.16" rx="1.73"/><rect class="cls-2" x="620.05" y="305.56" width="3.56" height="7.16" rx="1.73"/><rect class="cls-2" x="628.21" y="305.56" width="3.56" height="7.16" rx="1.73"/><rect class="cls-2" x="636.38" y="305.56" width="3.56" height="7.16" rx="1.73"/><rect class="cls-2" x="644.54" y="305.56" width="3.56" height="7.16" rx="1.73"/><rect class="cls-2" x="620.05" y="318.76" width="3.56" height="7.16" rx="1.73"/><rect class="cls-2" x="628.21" y="318.76" width="3.56" height="7.16" rx="1.73"/><rect class="cls-2" x="636.38" y="318.76" width="3.56" height="7.16" rx="1.73"/><rect class="cls-2" x="644.54" y="318.76" width="3.56" height="7.16" rx="1.73"/><rect class="cls-2" x="616.16" y="331.97" width="3.56" height="7.16" rx="1.73"/><rect class="cls-2" x="624.33" y="331.97" width="3.56" height="7.16" rx="1.73"/><rect class="cls-2" x="632.49" y="331.97" width="3.56" height="7.16" rx="1.73"/><rect class="cls-2" x="640.66" y="331.97" width="3.56" height="7.16" rx="1.73"/><rect class="cls-2" x="648.82" y="331.97" width="3.56" height="7.16" rx="1.73"/><rect class="cls-2" x="616.16" y="345.17" width="3.56" height="7.16" rx="1.73"/><rect class="cls-2" x="624.33" y="345.17" width="3.56" height="7.16" rx="1.73"/><rect class="cls-2" x="632.49" y="345.17" width="3.56" height="7.16" rx="1.73"/><rect class="cls-2" x="640.66" y="345.17" width="3.56" height="7.16" rx="1.73"/><rect class="cls-2" x="648.82" y="345.17" width="3.56" height="7.16" rx="1.73"/><path class="cls-2" d="M648 267.32h-15.28a15 15 0 00-15 15H663a15 15 0 00-15-15z"/><path class="cls-2" d="M632.33 267.32h4A14.63 14.63 0 01651 281.95v.4h-33.3v-.4a14.63 14.63 0 0114.63-14.63z"/></g><path class="cls-2" d="M749 294.62v65.11a5.75 5.75 0 01-5.75 5.76h-35.81a5.75 5.75 0 01-5.75-5.76v-33.94a63.62 63.62 0 00-8.17-31.17zm-.03 12.42h-6.74m6.74 15.69h-6.74m6.74-7.85h-13.48m13.48 15.69h-13.48m13.48 7.84h-6.74m6.74 15.68h-6.74m6.74-7.84h-13.48" id="BEAKER"/><g id="POTS"><path class="cls-2" d="M352 219.86h84V262a16.73 16.73 0 01-16.73 16.73h-50.56A16.73 16.73 0 01352 262v-42.14zm84 0h13.67a4.58 4.58 0 014.58 4.58v.63a4.58 4.58 0 01-4.58 4.58H436v-9.79z"/><path class="cls-2" d="M333.74 219.86h13.66a4.58 4.58 0 014.58 4.58v.63a4.58 4.58 0 01-4.58 4.58h-13.66v-9.79z" transform="rotate(180 342.86 224.76)"/><path class="cls-2" d="M337.24 240.5h113.48v62.75A16.73 16.73 0 01434 320h-80a16.73 16.73 0 01-16.73-16.73V240.5h-.03z"/><path class="cls-2" d="M450.72 240.5h18.46a6.19 6.19 0 016.19 6.19v.85a6.19 6.19 0 01-6.19 6.19h-18.46V240.5z"/><path class="cls-2" d="M312.59 240.5h18.46a6.19 6.19 0 016.19 6.19v.85a6.19 6.19 0 01-6.19 6.19h-18.46V240.5z" transform="rotate(-180 324.915 247.115)"/><path class="cls-2" d="M449 365.22H339a16.73 16.73 0 01-16.73-16.72v-83.7h143.4v83.7A16.73 16.73 0 01449 365.22zm41.73-83.7h-25.06v-12.19h25.06a6.1 6.1 0 016.09 6.1 6.09 6.09 0 01-6.09 6.09z"/><path class="cls-2" d="M297.23 281.52h25.06v-12.19h-25.06a6.1 6.1 0 00-6.09 6.1 6.09 6.09 0 006.09 6.09z"/><rect class="cls-2" x="318.62" y="262.55" width="150.65" height="6.79" rx="3.39"/><path class="cls-2" d="M436 219.86h-84c4.07-7.82 21.33-13.7 42-13.7s37.91 5.84 42 13.7z"/><path class="cls-2" d="M402 196.33h-16.1a2.21 2.21 0 00-2.05 3l2.85 7.22h14.5l2.85-7.22a2.2 2.2 0 00-2.05-3z"/></g><path class="cls-2" d="M567.68 301.65v58.65c0 2.87-3 5.19-6.69 5.19h-41.63c-3.7 0-6.69-2.32-6.69-5.19v-30.57a47.67 47.67 0 00-9.5-28.08zm23.04 3.35v28.54a5 5 0 01-5-5.05v-18.24a3.39 3.39 0 00-3.39-3.39h-14.6v-5.21h19.65a3.38 3.38 0 013.34 3.35z" id="POT-2" data-name="POT"/></g></g><circle cx="1016.19" cy="606.92" r="10.52" fill="#c48270"/><path class="cls-6" d="M1009.38 610.32s3.16-9.23 9.64-8.75m-5.18 4.65l3.61 2.6m-58.34 2.58l-5.21 18.4 10.99 5.74"/><ellipse class="cls-12" cx="975.49" cy="610.32" rx="3.08" ry="3.83"/><ellipse class="cls-12" cx="946.31" cy="615.81" rx="3.08" ry="3.83"/><path d="M962.76 647.81A16.83 16.83 0 00983.37 637" fill="none" stroke="#0f0f0f" stroke-width="4" stroke-linecap="round" stroke-linejoin="round"/></g></svg>