<svg xmlns="http://www.w3.org/2000/svg" viewBox="0 0 2000 1561.26"><defs><style>.cls-2,.cls-3{fill:#f7f3ef}.cls-10,.cls-3,.cls-4,.cls-6,.cls-8{stroke:#070707}.cls-10,.cls-3,.cls-4,.cls-6,.cls-7,.cls-8{stroke-linecap:round;stroke-linejoin:round;stroke-width:4px}.cls-4{fill:#fcbe9f}.cls-5{fill:#1c0e0c}.cls-6{fill:none}.cls-7{fill:#efaf00;stroke:#000}.cls-8{fill:#e57b07}.cls-10{fill:#ea631f}</style></defs><g style="isolation:isolate"><path class="cls-2" d="M-33.36-20.35h2083.04v1611.53H-33.36z" id="Layer_2" data-name="Layer 2"/><g id="Chars"><g id="WOMAN"><g id="LEGS"><path id="PANTS" class="cls-3" d="M1186.66 1123.09c-7.69 113.9-25.84 199.71-24.06 218.55 0 0 35.8 141.16 19.78 297.23 0 0-63.27 6.55-90.18 0 0 0-2.59-17.5-7.67-43.74-9.75-50.4-18.74-133.06-29.34-186.11-3.52-17.58-17.59-85.94-31.23-159.67-19.93 50.47-38.6 83.11-54.87 127.4 0 0 2.79 171.18-61.74 266.49l-101.88-6.39s28.89-135.85 42.33-254.41L934 874.61h153.91s107.79 90.26 98.75 248.48z"/><path id="SHADOW" class="cls-3" d="M1023.17 1254.87l-20.3-150.8"/></g><path id="SHIRT" class="cls-3" d="M1067.65 590.87c21.37 5.26 75.25 19.07 91 42.52 20.52 30.5 54.29 177.38 54.29 177.38l-58.89-17.36S1116.29 725 1113.74 725s-25.85 149.62-25.85 149.62H934L921.22 799s-32.69-26.56-30.64-42.9 2.66-21.1 2.66-21.1-17.49 6.43-65.49 53.92l-56.16-24.62s86.82-122.75 111.84-137.47 54.64-17.77 54.64-17.77z"/><g id="HEAD"><g id="NECK"><path class="cls-4" d="M993.55 489.34s19.23 77.5 83 104.47c0 0-46.58 32.26-144.57 20.29 0 0 34.76-39.55 28.19-83.46z"/><path class="cls-5" d="M951 599.88a17.06 17.06 0 01-7.73-1.56c9.5-15.54 21-40.79 17-67.68l32.21-39.91c1.31 1.8 2 2.9 2 2.9 4.46 13.98 7.14 104.05-43.48 106.25z"/></g><path id="HEAD-2" data-name="HEAD" class="cls-4" d="M993.55 489.34c4.53 14-1.71 80.67-38.7 85.21-27.81 3.41-58.59-52.44-62.58-65s.89-42.55 30.64-51.55c39.88-12.1 70.64 31.34 70.64 31.34z"/><g id="HAIR"><path class="cls-5" d="M907.53 474.58s27.47 23.3 86 14.76c0 0 17.09 78.77 83 104.47 0 0 42.56-48.23 13.94-81.4-18.17-21-59-2.56-59-2.56s36.32-91.46-53.84-91.89-109.52 95.3-82.44 98.85c.11 0-13.19-27.47 12.34-42.23z"/><path class="cls-6" d="M1094.82 504.25c-31.19-23.74-65 6-65 6m-123.15-36.52s15.35 34.47 73.9 25.93"/></g><path id="SHAWL" class="cls-7" d="M884.15 497.33s-8.95-33.63.45-49.44 52.12-47.43 82.46-49.56 96.57 34.61 96.57 34.61-55.45 2.79-65.54 71.25c0 0-25.31-57.08-70.43-47.38s-43.51 40.52-43.51 40.52z"/></g><path id="APRON" class="cls-7" d="M1050.42 581S1031 634.86 1029 674.3c0 0-68.07 9.64-83.8 1-9.79-5.39 2.69-79.91 2.69-79.91l-23.51 16.08S895.9 713.85 893.24 735s-10.83 33.91 28 64L934 874.6l-41.62 212.8s159.59 11.39 216.27-3.42-20.74-209.38-20.74-209.38l11.5-71.92s-64.8-60.34-31.74-211.81z"/><g id="HANDS"><g id="RIGHT_HAND" data-name="RIGHT HAND"><path class="cls-3" d="M1154.43 827.66c-4.47-1.83-17.9-43 14.44-51.89 42.42-11.6 50.88 10.33 49.75 28.47-2.16 34.96-24.37 39.76-64.19 23.42zm-159.32 39.59l-.46-.24a3.51 3.51 0 01-1.48-4.74l26.73-57.91a3.52 3.52 0 014.75-1.48l6.06 3.17a3.52 3.52 0 011.49 4.75l-32.35 55a3.51 3.51 0 01-4.74 1.45z"/><path class="cls-3" transform="rotate(27.63 970.977 912.585)" d="M968.78 860.15h4.52v105.06h-4.52z"/><path class="cls-3" d="M952.88 984.24c-6.3 12.06-21.59 23.6-29.49 19.47s-7.12-23.27-.81-35.33 16.56-13.62 24.31-9.56 12.3 13.37 5.99 25.42z"/><path class="cls-4" d="M1189 836.78c-37.64 22.46-114.76 55.53-158.41 65.22-5.33 11.91-23.09 30.36-27.51 31.28-5.09 1.06-7-1.44-12-3.29-8.57-3.15-4.46-9.33-10.12-10.44s-6.93-9.64-6.93-9.64-5.33.7-8.53 9.47c-4 11-9.83 8.43-9.83 8.43s3-17.77 5.52-21.12a99.66 99.66 0 0114-14.88c3.18-2.68 30.58-7.83 44.18-7.69 34.06-29.25 92.09-72.11 130.39-88 27.5-11.33 73.07 20.44 39.24 40.66z"/></g><g id="LEFT_HAND" data-name="LEFT HAND"><path class="cls-3" d="M757.54 818.88c-4.47-1.82-17.74-46.29 14.44-55.73s55.4 12.64 56.68 30.77c.6 8.5-31.3 41.25-71.12 24.96z"/><path class="cls-4" d="M789.84 852.06c-5.11-2-56.8-33.87-25.26-58.71 41.23-32.46 55.93 25.92 55.93 25.92z"/><path class="cls-3" d="M840 829.34l-.48.2a3.5 3.5 0 01-4.6-1.86l-27.8-57.41a3.5 3.5 0 011.86-4.6l6.3-2.68a3.52 3.52 0 014.61 1.86l22 59.88a3.51 3.51 0 01-1.89 4.61z"/><path class="cls-3" transform="rotate(-22.99 859.933 876.85)" d="M857.55 824.24h4.52V929.3h-4.52z"/><path class="cls-3" d="M903.61 936.2c5.31 12.53 4.54 31.67-3.66 35.15s-22.51-9.26-27.82-21.79 0-21.44 8-24.86c8.23-3.48 18.16-1.02 23.48 11.5z"/><path class="cls-4" d="M816.83 819.48c2.73-1.77 9.55-4.88 19.09 3.72s35.52 37.58 31.86 41.24c-7 7-20.89-16.52-23.66-13.87-.79.76-.45 2.59-.72 4.52s-1.15 3.94-4.4 5.07c-4.34 1.53 0 7.09-6.06 10.43s-3.12 5-7.49 10.19c-5 5.87-32.93-11.5-37.35-20.84s17.1-32.89 28.73-40.46z"/></g></g></g><path class="cls-6" d="M907.26 524.61s9.31 5.1 13.08-5.1m18.54-6.82s10.37 6.24 18-5.84m-29.03 11.19v16.29l7.41 5.1m6.14 10.22s10.3-3.24 11.75-10.86m-11.38 154.28h85.73m-82.02 143.57h42.56"/><ellipse class="cls-8" cx="1027.31" cy="511.78" rx="25.35" ry="9.59" transform="rotate(-47.78 1027.216 511.78)"/><path class="cls-2" d="M379.31 1123.09h1238.72v457.24H379.31z"/><g id="TABLE"><path class="cls-3" d="M1628.18 1357.56l-50.02-229.72 41.27-5 38.47 234.72"/><path class="cls-5" d="M1578.16 1127.84l41.27-5 4.05 24.75-42.39-6.32-2.93-13.43z"/><path class="cls-3" d="M371.69 1357.56l50.02-229.72-41.27-5-38.48 234.72"/><path fill="#070707" d="M380.44 1122.84l41.27 5-5.93 27.24-37.05-21.78 1.71-10.46z"/><ellipse class="cls-3" cx="999.5" cy="1071.58" rx="699.47" ry="51.52"/><path class="cls-3" d="M1699 1071.58v27.31c0 28.46-313.17 51.52-699.47 51.52-337.87 0-619.78-17.64-685.17-41.1-9.36-3.31-14.36-6.84-14.36-10.42v-27.31c0 3.57 4.93 7.05 14.31 10.41q4.57 1.63 10.55 3.25c81.28 21.82 352.52 37.85 674.62 37.85s593.33-16 674.61-37.85c16.22-4.35 24.91-8.94 24.91-13.66z"/><path class="cls-3" d="M1280.25 1118.62c-20.25 130.13-242.17 207.38-404.81 192.1-199.57-18.79-306.67-115.08-351.11-167.72a31.37 31.37 0 01-4.47-33.6c124.73 8.5 291.58 13.69 474.9 13.69 101.69 0 198.31-1.6 285.49-4.47z"/><path class="cls-3" d="M1487.92 1033.92l-2.33.95-205.31 83.58v.17c-87.18 2.87-183.8 4.47-285.49 4.47-183.32 0-350.17-5.19-474.9-13.69a31.29 31.29 0 0116.87-16l171.55-68.72s4.37-.21 12.63-.56c70.06-2.93 419.79-15.64 766.98 9.8z"/></g><g id="LEMON"><path class="cls-3" d="M663 1088.57c7.34 6.28 15.69 9.81 24.41 7.11l7.87-2.44c5.52-1.7 9.34-5 12.61-9.28 3.14-4.07 3.82-11.55 2.17-17-3.35-11.1-16.43-17-27.5-13.55l-6.12 1.89c-8.07 2.5-12.15 6.21-14.65 11-1.29 2.44-2.06 6.12-3.74 8.36-1.52 2-3.91 3.38-3.09 7.2s3.38 2.75 8.04 6.71zm125.51-52.93a2 2 0 012 2.12c-1 16.77-14.29 30-30.49 30s-29.45-13.26-30.49-30a2 2 0 012-2.12z"/><path class="cls-3" d="M788.94 1035.64c0 16-13 24.7-28.94 24.7s-28.94-8.72-28.94-24.7z"/><path class="cls-3" d="M765.49 1053.15a1 1 0 01-.76 1.28 35.12 35.12 0 01-9.46 0 1 1 0 01-.75-1.28l4.6-12.3a.94.94 0 011.77 0zm18.05-16.92a19.46 19.46 0 01-1.73 6.88.57.57 0 01-.76.26l-13.12-6.68a.56.56 0 01.25-1H783a.56.56 0 01.54.54zm-32.02.77l-12.44 6.34a.7.7 0 01-1-.34 19.12 19.12 0 01-1.65-6.58.69.69 0 01.7-.74h14a.7.7 0 01.39 1.32zm27.48 10.33a21 21 0 01-9 5.85.92.92 0 01-1.16-.53l-5-12.71a.91.91 0 011.27-1.15l13.67 7.13a.92.92 0 01.22 1.41zm-23.44-7.23l-4.84 12.32a1 1 0 01-1.27.55 20.76 20.76 0 01-8.61-5.78 1 1 0 01.3-1.51l13.05-6.81a1 1 0 011.37 1.23z"/></g><g id="GROCERY_BAG" data-name="GROCERY BAG"><g id="BAGUETTE"><path class="cls-3" d="M1580.7 878.82c-8 30.22-32.41 114.47-55.32 112.68-27.91-2.18 6.62-128.5 6.62-128.5s27.79-111.15 55.76-110.19-7.06 126.01-7.06 126.01z"/><ellipse class="cls-3" cx="1537.81" cy="934.66" rx="3.31" ry="10.06" transform="rotate(-87.5 1537.73 934.674)"/><ellipse class="cls-3" cx="1577.68" cy="795.37" rx="10.06" ry="3.31"/><ellipse class="cls-3" cx="1570.56" cy="823.56" rx="13.42" ry="4.42"/><ellipse class="cls-3" cx="1559.05" cy="852.56" rx="15.06" ry="4.96"/><ellipse class="cls-3" cx="1545.64" cy="908.41" rx="4.42" ry="13.42" transform="rotate(-87.5 1545.564 908.432)"/><ellipse class="cls-3" cx="1549.83" cy="885.49" rx="4.96" ry="15.06" transform="rotate(-87.5 1549.759 885.512)"/></g><g id="RED_PEPPER" data-name="RED PEPPER"><path class="cls-3" d="M1431 852.06s5.59-7.42-2.93-15.14l2.92-1.06a18.48 18.48 0 018.45 12.74z"/><path class="cls-7" d="M1442.09 916.11a14.92 14.92 0 01-18.49-7.43l-16.93-30.57c-3.91-8 1.57-18.14 9.9-21.17l.23-.09a14.91 14.91 0 0119.12 8.9L1451 897a14.92 14.92 0 01-8.91 19.11zm29.29-10.68a14.91 14.91 0 009.37-17.59l-6.4-34.41c-2.13-8.6-13.2-12.75-21.52-9.71l-.24.08a14.91 14.91 0 00-8.9 19.12l8.58 33.61a14.91 14.91 0 0019.11 8.9z"/><path class="cls-7" d="M1457.74 912.7a12.59 12.59 0 01-16.16-7.53l-14.5-39.75a12.61 12.61 0 017.53-16.16 12.6 12.6 0 0116.16 7.52l14.5 39.75a12.62 12.62 0 01-7.53 16.17z"/></g><g id="PARSLEY"><path class="cls-3" d="M1390.27 880.5s-22.5-42.36-88.68-7.71m29.58-11.55s-13.65 3.59-13.65 7.11 6.82 1.62 6.82 1.62-9.89 4.89-9.55 8.14 7.34 0 7.34 0-4.75 9.91-1 11 3.91-6.59 3.91-6.59 4.77 3.76 6.14 2.42-3.24-10.65-3.24-10.65 4.43 5.83 7.16 3.77-5.1-11.13-3.93-16.82z"/><path class="cls-3" d="M1307.53 869.83s-12.5-3.38-14.37 0 4.12 1.92 4.12 1.92-11.43 5.18-10.5 8.75 6.94 0 6.94 0-1 8.51 3.41 6.87 3.6-13.2 10.4-17.54zm68.81-33.48s10-4.75 9.65-7.81-3.7 1.08-3.7 1.08 5.15-9.33 2.78-11-4.66 3.77-4.66 3.77-3.44-5.71-5.64-2.3 4.02 9.91 1.57 16.26z"/><path class="cls-6" d="M1394 880.5s-11-41.32-59.24-38.81"/><path class="cls-3" d="M1337.36 841.13s-5.43 14.1-10.85 11.32 2.29-5.29 2.29-5.29-15.86 4-15.24-1.67 11.89-3.43 11.89-3.43-6-3.36 0-4.82 11.91 3.89 11.91 3.89zm27 5.57s-1.68-13.78-7.4-13.78 1.16 8.66 1.16 8.66-6.89-5.73-8.14-1.77 7 5.88 7 5.88-5.31 6.68-1.34 6.35 8.72-5.34 8.72-5.34zm-.83 14.48s-13.23-4.19-15.61 1 8.36 2.53 8.36 2.53-8.07 3.89-5 6.68 8.24-3.91 8.24-3.91 3.88 7.6 5.22 3.85-1.21-10.15-1.21-10.15zm9.87-13.54s11-6.26 9-9.31-8.73 4.8-8.73 4.8-2.33-8.71-5.11-7.33 4.84 11.84 4.84 11.84z"/><path class="cls-6" d="M1382.65 880s-17.85-34.64-3.7-47.57"/></g><g id="ONION"><path class="cls-3" d="M1470.57 784.84s15.22 26.76 9.82 134.94l10.74.34s3.55-101.79-20.56-135.28z"/><path class="cls-3" d="M1480.39 919.78s20.58-139.1 6-173.43c0 0 22.63 34.41 4.7 173.77z"/><path class="cls-3" d="M1480.39 919.78c6.19-49.95 50.46-115 50.46-115s-35.38 78.65-39.72 115.31z"/><path class="cls-3" d="M1475.77 959.4s3.28-19.07 4.62-39.62c0 0 5.71-4.69 10.74.34a251.43 251.43 0 00.5 42.7z"/><ellipse class="cls-3" cx="1483.65" cy="961.69" rx="4.81" ry="8.2" transform="rotate(-74.05 1483.715 961.685)"/><path class="cls-3" d="M1489.94 963.42v.05a3.38 3.38 0 01-2.63 2.16 8.65 8.65 0 01-4.46-.17c-3.35-1-5.52-3.32-5-5.39V960a3.38 3.38 0 012.63-2.16 8.64 8.64 0 014.46.17c3.38.99 5.55 3.34 5 5.41zm-11.17-3.12c-.41 1.53 1.56 3.48 4.33 4.27a7.75 7.75 0 004 .16 2.49 2.49 0 002-1.52c.41-1.52-1.56-3.47-4.33-4.26a7.75 7.75 0 00-4-.16 2.49 2.49 0 00-2 1.52z"/><path class="cls-3" d="M1486.67 962.52c-.3 1.05-1.8 1.51-3.42 1.05s-2.63-1.63-2.35-2.67c.3-1 1.8-1.51 3.42-1 1.6.4 2.68 1.57 2.35 2.62zm-4.88-1.37c-.13.47.57 1.23 1.71 1.55s2.14 0 2.27-.41c.13-.46-.57-1.22-1.71-1.55-1.14-.32-2.14-.05-2.27.42z"/></g><g id="PACK"><path class="cls-3" d="M1597.67 879.98l-26.55 202.37h-11.76l-30.34-202.37h68.65z"/><path class="cls-3" d="M1605.16 886.53l-26.08 196.83h-11.75l-29.88-196.83h67.71z"/><path class="cls-3" d="M1598.43 879.98l-26.55 202.37h-11.76l-30.35-202.37h68.66zm-38.31 202.37h-165.28l-26.56-202.37h161.49l30.35 202.37z"/></g></g><g id="YELLOW_PEPPER" data-name="YELLOW PEPPER"><path class="cls-3" d="M1304.16 979.46s7.11-4.6 2.27-14h2.86a17.81 17.81 0 013.15 14.1z"/><path class="cls-10" d="M1292.78 1038.3a13.74 13.74 0 01-13.53-12.43l-4.66-31.87c-.78-8.13 7.25-15.13 15.42-15h.24a13.75 13.75 0 0113.59 13.9l2.83 31.85a13.73 13.73 0 01-13.89 13.55zm28.74.32a13.73 13.73 0 0013.8-12.13l5.68-31.76c1-8.11-7.24-15.29-15.41-15.38h-.23a13.75 13.75 0 00-13.9 13.59l-3.53 31.78a13.75 13.75 0 0013.59 13.9z"/><path class="cls-10" d="M1307.39 1040.45a11.63 11.63 0 01-11.5-11.75l.43-39a11.63 11.63 0 0111.75-11.5 11.63 11.63 0 0111.5 11.75l-.43 39a11.62 11.62 0 01-11.75 11.5z"/></g><g id="SALAD"><g id="BOWL"><path d="M1038.53 936.8a118.47 118.47 0 01-118.47 118.47h0A118.48 118.48 0 01801.59 936.8z" style="mix-blend-mode:multiply" stroke-linecap="round" stroke-linejoin="round" stroke-width="4" stroke="#070707" fill="#f7f3ef"/><path class="cls-3" d="M1038.15 936.42a118.48 118.48 0 01-118.47 118.47 118.48 118.48 0 01-118.47-118.47z"/></g><g id="SALAD-2" data-name="SALAD"><ellipse class="cls-3" cx="935.5" cy="1025.19" rx="20.23" ry="15.07" transform="rotate(-18.94 935.26 1025.011)"/><ellipse class="cls-3" cx="933.7" cy="1025.85" rx="17.94" ry="13.64" transform="rotate(-21.53 933.806 1025.934)"/><path class="cls-3" d="M937.08 1021.13c-.22 1-3.15 3.69-3.15 3.69s-1.7-2.7-1.48-3.69a2.79 2.79 0 012.72-1.8c1.28 0 2.14.81 1.91 1.8zm-6.77 9.44c.22-1 3.15-3.69 3.15-3.69s1.7 2.69 1.48 3.69a2.78 2.78 0 01-2.72 1.79c-1.28 0-2.14-.8-1.91-1.79zm-2.31-6.52c1.28 0 4.34 1.8 4.34 1.8s-3.88 1.8-5.16 1.8-2.13-.81-1.9-1.8a2.77 2.77 0 012.72-1.8zm11.36 3.6c-1.28 0-4.34-1.8-4.34-1.8s3.88-1.8 5.16-1.8 2.13.81 1.9 1.8a2.77 2.77 0 01-2.72 1.8z"/><circle class="cls-3" cx="904.45" cy="1018.85" r="7.48"/><circle class="cls-3" cx="964.58" cy="1005.62" r="8.96" transform="rotate(-75.66 964.64 1005.624)"/><circle class="cls-3" cx="840.49" cy="1000.15" r="8.96" transform="rotate(-77.64 840.423 1000.14)"/><ellipse class="cls-3" cx="863.22" cy="1014.71" rx="7.72" ry="19.27" transform="rotate(-18.1 863.207 1014.706)"/><path class="cls-3" d="M862 1000.16c3.16-.27 7.65 6.72 9.52 15.83 1.46 7.08 1.38 13.5-2.6 13.84-2.17.19-5.51-4.73-8-13.72s-2.87-15.61 1.08-15.95z"/><ellipse class="cls-3" cx="914.7" cy="967.42" rx="19.27" ry="5.17" transform="rotate(-61.5 914.653 967.4)"/><path class="cls-3" d="M905.94 978.78c-1.46-1.65 1.16-9.4 6.19-17.17 3.9-6.05 8-10.71 9.86-8.63 1 1.13-.77 6.68-5.48 14.72s-8.74 13.15-10.57 11.08zm47.64 13.01c8.77-3.78 21.37-5.51 36.6 2.75"/><path class="cls-3" d="M988.66 993.38s-.84 10.79 3.53 10.67.15-4.13.15-4.13 9 7.46 10.37 3.62-6.63-5.89-6.63-5.89 4.92-.32 1.49-3.12-8.91-1.15-8.91-1.15zm-19.19-4.73s5.33-8.4 9-6.64-3.43 5.25-3.43 5.25 6.23-1.59 5.82 1.37-6.33 1.65-6.33 1.65 1.37 6-1.09 4.52-3.97-6.15-3.97-6.15zm-88.67 34.46c1.68 7.79 8.34 19.47 32.33 24.57"/><path class="cls-3" d="M897.61 1042.55s6.59 3.06 7.75 1.66-2.17-2.88-2.17-2.88 5.52 1.31 6.46-.09-2.91-2.41-2.91-2.41 5.13-2.37 4-4-3.71 1.33-3.71 1.33-.66-3.06-1.64-3-2.21 5.29-2.21 5.29.16-3.77-1.6-3.85-1.58 6.08-3.97 7.95zm12.19 4.35s3.85 5.45 5.7 4.72-1-2.11-1-2.11 6.23 1.7 7 0-2.75-2.28-2.75-2.28 3.22-3 .91-3.85-5.73 4.04-9.86 3.52zm-25.04-14.96s3.87 6 6.52 4.73-2.48-3.75-2.48-3.75 4.48 1.11 4.17-1-4.55-1.16-4.55-1.16 1-4.28-.81-3.24-2.85 4.42-2.85 4.42zm66.02 8.53c7.7 2.07 21.13 1.48 36.62-17.54"/><path class="cls-3" d="M975.75 1034.4s5.73-4.47 5-6.14-3.56.62-3.56.62 3.69-4.32 2.87-5.79-3.47 1.49-3.47 1.49.24-5.65-1.76-5.43-.52 3.91-.52 3.91-3-.82-3.4.1 3.7 4.38 3.7 4.38-3.28-1.86-4.16-.33 4.71 4.25 5.3 7.19zm9.44-8.86s6.6-.94 6.8-2.92-2.34-.07-2.34-.07 4.36-4.77 3.2-6.27-3.29 1.41-3.29 1.41-1.23-4.24-3-2.56.97 6.97-1.37 10.41zM960.45 1041s7.11-.7 7.18-3.64-4.47.49-4.47.49 3-3.47 1-4.16-3.1 3.52-3.1 3.52-3.38-2.81-3.26-.77 2.65 4.56 2.65 4.56zm-75.94-48.67s7.2-8.47 5.58-11.1-2.93 2.52-2.93 2.52.85-10.64-2-11.15-2.76 7.11-2.76 7.11-5.27-5.18-5.86-1.17 4.76 9.3 7.97 13.79z"/><path class="cls-3" d="M886.51 1003.83s7.44-10.25 4.31-12.18-6 8-6 8-5.72-7-7.68-4.56 9.37 8.74 9.37 8.74zm3.82 6.49c-4.91-7.26-8.13-15.5-5.06-22.66"/></g></g><g id="CUTTING_BOARD" data-name="CUTTING BOARD"><g id="CUTTING_BOARD-2" data-name="CUTTING BOARD"><path class="cls-3" d="M1303.54 1050.58a2.71 2.71 0 01-1.75 2.57l-6.53 2.66-60.66 24.69a26.74 26.74 0 01-10.11 2H986.32a2.78 2.78 0 01-2.82-2.85 2.71 2.71 0 011.76-2.57l67.19-27.36a26.87 26.87 0 0110.1-2h238.17a2.78 2.78 0 012.82 2.86z"/><path class="cls-3" d="M1303.54 1050.58v8.08a2.71 2.71 0 01-1.75 2.57l-67.19 27.35a26.74 26.74 0 01-10.11 2H986.32a2.78 2.78 0 01-2.82-2.85v-8.08a2.78 2.78 0 002.82 2.85h238.17a26.74 26.74 0 0010.11-2l60.66-24.69 6.53-2.66a2.71 2.71 0 001.75-2.57z"/></g><g id="KNIFE"><path class="cls-3" d="M1115.94 1054.11l50.23-14.13a2.39 2.39 0 001.65-3l-2.07-7a2.38 2.38 0 00-2.94-1.65l-50.24 14.13a2.41 2.41 0 00-1.65 3l2.07 7a2.39 2.39 0 002.95 1.65z"/><path class="cls-3" d="M1035.29 1065.59l75.42-21.22 5.07 18s-49.21 21.93-80.49 3.22z"/></g><g id="TOMATO"><ellipse class="cls-3" cx="1230.45" cy="1043.41" rx="24.21" ry="22.1"/><ellipse class="cls-3" cx="1225.95" cy="1045.05" rx="18.99" ry="19.45"/><path class="cls-3" d="M1228.52 1038.63c0 1.35-2.57 5-2.57 5s-2.56-3.67-2.56-5a2.57 2.57 0 015.13 0zm-5.13 12.84c0-1.35 2.56-5 2.56-5s2.57 3.66 2.57 5a2.57 2.57 0 01-5.13 0zm-4.17-8.87c1.41 0 5.26 2.45 5.26 2.45s-3.85 2.45-5.26 2.45a2.45 2.45 0 110-4.9zm13.47 4.9c-1.42 0-5.26-2.45-5.26-2.45s3.84-2.45 5.26-2.45a2.45 2.45 0 110 4.9z"/><ellipse class="cls-3" cx="1204.21" cy="1046.27" rx="22.16" ry="18.05" transform="rotate(-31.22 1204.089 1046.22)"/><ellipse class="cls-3" cx="1202.27" cy="1047.08" rx="19.79" ry="16.22" transform="rotate(-35.78 1202.142 1047.032)"/><path class="cls-3" d="M1205.9 1041.3c-.24 1.22-3.38 4.52-3.38 4.52s-1.82-3.3-1.58-4.52a3 3 0 012.92-2.21 1.87 1.87 0 012.04 2.21zm-7.25 11.57c.24-1.22 3.37-4.52 3.37-4.52s1.83 3.3 1.59 4.52a3 3 0 01-2.92 2.2 1.87 1.87 0 01-2.04-2.2zm-2.44-7.99c1.37 0 4.64 2.2 4.64 2.2s-4.14 2.21-5.51 2.21a1.87 1.87 0 01-2-2.21 3 3 0 012.87-2.2zm12.13 4.41c-1.37 0-4.64-2.21-4.64-2.21s4.14-2.2 5.51-2.2a1.87 1.87 0 012 2.2 3 3 0 01-2.87 2.21z"/><ellipse class="cls-3" cx="1189.62" cy="1049.82" rx="20.23" ry="15.07" transform="rotate(-18.94 1189.333 1049.646)"/><ellipse class="cls-3" cx="1187.81" cy="1050.48" rx="17.94" ry="13.64" transform="rotate(-21.53 1187.958 1050.576)"/><path class="cls-3" d="M1191.2 1045.76c-.23 1-3.16 3.69-3.16 3.69s-1.7-2.69-1.47-3.69a2.77 2.77 0 012.72-1.8c1.28.04 2.13.81 1.91 1.8zm-6.78 9.44c.23-1 3.16-3.69 3.16-3.69s1.7 2.69 1.47 3.69a2.76 2.76 0 01-2.72 1.79c-1.28.01-2.13-.8-1.91-1.79zm-2.27-6.52c1.27 0 4.33 1.8 4.33 1.8s-3.87 1.8-5.15 1.8-2.13-.81-1.91-1.8a2.79 2.79 0 012.73-1.8zm11.32 3.6c-1.27 0-4.33-1.8-4.33-1.8s3.87-1.8 5.15-1.8 2.13.81 1.91 1.8a2.79 2.79 0 01-2.73 1.8z"/></g></g><g id="OIL"><path class="cls-3" d="M673.42 822.6h14.39a4.65 4.65 0 014.65 4.65v30.84h-23.69v-30.84a4.65 4.65 0 014.65-4.65z"/><path class="cls-5" d="M685.74 858.09h5.6A26.91 26.91 0 01718.25 885v150.57a8 8 0 01-8 8h-43.37a8 8 0 01-8-8V885a26.91 26.91 0 0126.86-26.91z"/><path class="cls-3" d="M670.82 858.09h5.6A26.91 26.91 0 01703.33 885v150.57a8 8 0 01-8 8H652a8 8 0 01-8-8V885a26.91 26.91 0 0126.82-26.91z"/><path class="cls-5" d="M714.65 887.5v143.71c0 6-3.31 9.33-8.81 9.33h-49c-5.5 0-8.8-3.71-8.8-9.72V887.5z"/><rect class="cls-3" x="650.74" y="931.8" width="45.53" height="33.65" rx="5.46"/><path class="cls-3" d="M670.82 858.09h5.6A26.91 26.91 0 01703.33 885v150.57a8 8 0 01-8 8H652a8 8 0 01-8-8V885a26.91 26.91 0 0126.82-26.91z"/></g><g id="SALT_PEPPER" data-name="SALT &amp; PEPPER"><g id="SALT"><circle class="cls-3" cx="452.11" cy="996.75" r="16.74" transform="rotate(-78.34 452.14 996.76)"/><circle class="cls-3" cx="449.42" cy="993.84" r="17.24" transform="rotate(-78.38 449.476 993.872)"/><path class="cls-3" d="M447.5 1007.94H464a14 14 0 0114 14v32.76a4.26 4.26 0 01-4.26 4.26h-36.02a4.26 4.26 0 01-4.26-4.26V1022a14 14 0 0114.04-14.06z"/><path class="cls-5" d="M447.12 1007.94h16.54a14 14 0 0114 14v32.76a4.26 4.26 0 01-4.26 4.26h-36.06a4.26 4.26 0 01-4.26-4.26V1022a14 14 0 0114.04-14.06z"/><path class="cls-3" d="M435.19 1007.94h16.54a14 14 0 0114 14v32.76a4.26 4.26 0 01-4.26 4.26h-36.06a4.26 4.26 0 01-4.26-4.26V1022a14 14 0 0114.04-14.06z"/><rect class="cls-3" x="431.6" y="1026.53" width="28.6" height="17.85" rx="3.42"/><rect class="cls-3" x="428.91" y="1024.22" width="28.6" height="17.85" rx="3.42"/></g><g id="PEPPER"><circle class="cls-3" cx="529.11" cy="981.68" r="16.74" transform="rotate(-36.12 529.195 981.766)"/><circle class="cls-3" cx="526.67" cy="978.45" r="17.24" transform="rotate(-81.64 526.694 978.464)"/><path class="cls-3" d="M524.36 992.55h16.54a14 14 0 0114 14v32.76a4.26 4.26 0 01-4.26 4.26h-36.05a4.26 4.26 0 01-4.26-4.26v-32.76a14 14 0 0114.03-14z"/><path class="cls-5" d="M524.36 992.55h16.54a14 14 0 0114 14v32.76a4.26 4.26 0 01-4.26 4.26h-36.05a4.26 4.26 0 01-4.26-4.26v-32.76a14 14 0 0114.03-14z"/><path class="cls-3" d="M512.44 992.55H529a14 14 0 0114 14v32.76a4.26 4.26 0 01-4.26 4.26h-36.08a4.26 4.26 0 01-4.26-4.26v-32.76a14 14 0 0114.04-14z"/><rect class="cls-3" x="508.91" y="1011.35" width="28.6" height="17.85" rx="3.42"/><rect class="cls-3" x="506.21" y="1009.04" width="28.6" height="17.85" rx="3.42"/></g></g><g id="SHELVES"><g id="RIGHT"><path id="TOWEL" class="cls-5" d="M1300.83 636.44v125.73h101.6V645.42c0-5-5.11-9-11.43-9z"/><g id="SHELF"><path class="cls-3" d="M1239.17 597.04h25.79v14.09l-25.79-4.35v-9.74zm25.41 43.83h410.67"/><path class="cls-3" d="M1219.05 571.25h502.5v25.8h-502.5z"/><path class="cls-3" d="M1239.17 597.04h25.8v43.83h-25.8zm436.86 0h25.79v14.09l-25.79-4.35v-9.74z"/><path class="cls-3" d="M1676.02 597.04h25.8v43.83h-25.8z"/></g><path class="cls-3" d="M1391.08 636.44c-6.64 0-12 4-12 9v89.16h-94.41v-89.18c0-5 5.37-9 12-9z" id="TOWEL-2" data-name="TOWEL"/><g id="DISHES"><circle class="cls-3" cx="1309.28" cy="494.07" r="75.51" transform="rotate(-45 1309.28 494.069)"/><circle class="cls-3" cx="1309.28" cy="494.07" r="42.08" transform="rotate(-70.04 1309.297 494.068)"/><path class="cls-3" d="M1429.93 520.84h100.53a7.84 7.84 0 01-7.83 7.83h-84.88a7.83 7.83 0 01-7.82-7.83zm-9.26 17.39h119a9.27 9.27 0 01-9.27 9.27h-100.46a9.27 9.27 0 01-9.27-9.27zM1408 558.34h144.4a11.24 11.24 0 01-11.24 11.24h-121.93a11.25 11.25 0 01-11.23-11.24zm8.05-45.6h128.29a1.36 1.36 0 01.46 2.63l-13.6 5h-102l-13.61-5a1.36 1.36 0 01.46-2.63z"/><path class="cls-3" d="M1429.19 520.33h102a8 8 0 01-7.94 7.95h-86.13a7.94 7.94 0 01-7.94-7.95zm-24.96 8.03h151.92a1.61 1.61 0 01.55 3.12l-16.11 5.88h-120.8l-16.11-5.88a1.61 1.61 0 01.55-3.12zm15.56 9h120.8a9.4 9.4 0 01-9.4 9.4h-102a9.4 9.4 0 01-9.41-9.4zm-31.73 9.49h184.27a1.94 1.94 0 01.67 3.77l-19.54 7.14h-146.53l-19.54-7.14a1.94 1.94 0 01.67-3.77zm18.87 10.91h146.53a11.4 11.4 0 01-11.41 11.4h-123.71a11.4 11.4 0 01-11.41-11.4z"/></g><g id="CUPS"><path class="cls-3" d="M1458.3 647.19l32.54 32.64c4.74 4.75 4.49 12.69-.57 17.72l-12.37 12.34c-5.05 5-13 5.27-17.72.52l-32.55-32.64z"/><path class="cls-6" d="M1464.86 653.77c5.75-5.74 14.78-6 20.18-.59l6.57 6.59c5.39 5.41 5.1 14.44-.65 20.18"/><path class="cls-3" d="M1474.77 640.87h3.85v13.16h-3.85zm71.49 6.32l32.55 32.64c4.73 4.75 4.48 12.69-.57 17.72l-12.38 12.34c-5 5-13 5.27-17.72.52l-32.55-32.64z"/><path class="cls-3" d="M1546.26 647.19l32.55 32.64c4.73 4.75 4.48 12.69-.57 17.72l-12.38 12.34c-5 5-13 5.27-17.72.52l-32.55-32.64z"/><path class="cls-6" d="M1552.82 653.77c5.75-5.74 14.79-6 20.18-.59l6.57 6.59c5.39 5.41 5.11 14.44-.65 20.18"/><path class="cls-3" d="M1531.14 675.6a3.2 3.2 0 11-4.53 0 3.2 3.2 0 014.53 0zm17.34-17.34a3.21 3.21 0 11-4.54 0 3.2 3.2 0 014.54 0zm-8.67 8.67a3.2 3.2 0 11-4.53 0 3.2 3.2 0 014.53 0zm-6.7 20.61a3.2 3.2 0 11-4.53 0 3.2 3.2 0 014.53 0zm18.21-18.2a3.2 3.2 0 11-4.53 0 3.2 3.2 0 014.53 0zm9.1-9.11a3.2 3.2 0 11-4.53 0 3.19 3.19 0 014.53 0zm-18.2 18.21a3.2 3.2 0 11-4.53 0 3.2 3.2 0 014.53 0zm2.84 11.07a3.2 3.2 0 11-4.53 0 3.2 3.2 0 014.53 0zm17.33-17.33a3.2 3.2 0 11-4.53 0 3.2 3.2 0 014.53 0zm-8.66 8.67a3.2 3.2 0 11-4.53 0 3.2 3.2 0 014.53 0zm-6.73 20.61a3.2 3.2 0 11-4.53 0 3.2 3.2 0 014.53 0z"/><circle class="cls-3" cx="1562.97" cy="685.52" r="3.2"/><circle class="cls-3" cx="1572.08" cy="676.42" r="3.2"/><path class="cls-3" d="M1556.13 692.36a3.2 3.2 0 11-4.53 0 3.19 3.19 0 014.53 0zm2.87 11.07a3.2 3.2 0 11-4.53 0 3.2 3.2 0 014.53 0zm17.31-17.33a3.2 3.2 0 11-4.53 0 3.2 3.2 0 014.53 0zm-8.66 8.67a3.21 3.21 0 11-4.54 0 3.2 3.2 0 014.54 0zm-6-53.9h3.85v13.16h-3.85zm72.57 6.32l32.55 32.64c4.73 4.75 4.48 12.69-.57 17.72l-12.38 12.34c-5 5-13 5.27-17.72.52l-32.55-32.64z"/><path class="cls-6" d="M1640.78 653.77c5.75-5.74 14.79-6 20.18-.59l6.57 6.59c5.4 5.41 5.11 14.44-.64 20.18"/><path class="cls-3" d="M1649.3 640.87h3.85v13.16h-3.85z"/></g><g id="CUTTING_BOARD-3" data-name="CUTTING BOARD"><path class="cls-3" d="M1678.55 434.36h-9.16a12.43 12.43 0 01-12.54-12.36v-2.66a12.12 12.12 0 01.93-4.67 10.78 10.78 0 011.06-2 12.31 12.31 0 00.93-4.67v-1.75a12.44 12.44 0 00-12.54-12.25h-1.78a12.43 12.43 0 00-12.54 12.32v1.75a12.12 12.12 0 00.93 4.67 11.42 11.42 0 011.06 2 12.12 12.12 0 01.93 4.67V422c0 6.8-5.61 14.32-12.54 14.32h-9.17c-8.66 0-15.68 4.89-15.68 13.41v105.16a15.55 15.55 0 0015.68 15.4h64.43a15.55 15.55 0 0015.68-15.4V449.77a15.54 15.54 0 00-15.68-15.41zm-32.22-30.05a3.47 3.47 0 11-3.53 3.47 3.5 3.5 0 013.53-3.47z"/><path class="cls-3" d="M1673.89 432.75h-9.16a12.54 12.54 0 01-12.54-12.54v-2.71a12.72 12.72 0 01.93-4.75 12 12 0 011.06-2 12.58 12.58 0 00.93-4.76v-1.77a12.53 12.53 0 00-12.54-12.54h-1.77a12.53 12.53 0 00-12.54 12.54V406a12.58 12.58 0 00.93 4.76 11.29 11.29 0 011 2 12.53 12.53 0 01.94 4.75v2.71a12.55 12.55 0 01-12.54 12.54h-9.17a15.67 15.67 0 00-15.68 15.68v107a15.68 15.68 0 0015.68 15.68h64.42a15.68 15.68 0 0015.69-15.68v-107a15.68 15.68 0 00-15.64-15.69zm-32.21-23.52a3.54 3.54 0 113.54-3.53 3.53 3.53 0 01-3.54 3.53z"/></g></g><g id="LEFT"><path class="cls-3" d="M483.84 456.17h30.09v40.77a15 15 0 01-15 15 15 15 0 01-15-15v-40.77h-.09zm15.05 55.74v48.04m15.9 11.3l-15.9-11.05-15.91 11.05h31.81zm20.28-115.08h30.09v40.77a15 15 0 01-15 15 15 15 0 01-15-15v-40.77h-.09zm15.05 55.74v48.04m15.9 11.3l-15.9-11.05-15.9 11.05h31.8zm20.29-115.08h30.09v40.77a15 15 0 01-15 15 15 15 0 01-15-15v-40.77h-.09zm15.04 55.74v48.04m15.91 11.3l-15.9-11.05-15.91 11.05h31.81z" id="WINE_GLASSES" data-name="WINE GLASSES"/><g id="SHELF-2" data-name="SHELF"><path class="cls-3" d="M370.98 640.87h277.04m-.26-43.83h25.8v14.09l-25.8-4.35v-9.74zm-302.54 0h25.8v14.09l-25.8-4.35v-9.74z"/><path class="cls-3" d="M309.35 571.25h400.09v25.8H309.35z"/><path class="cls-3" d="M345.22 597.04h25.8v43.83h-25.8zm302.54 0h25.8v43.83h-25.8z"/></g><g id="PLANT"><path class="cls-8" d="M348.47 514.14h91v10.48a45.48 45.48 0 01-45.48 45.48 45.48 45.48 0 01-45.48-45.48v-10.48z"/><path class="cls-3" d="M389.34 514.14S393 449.21 415 418.56"/><path class="cls-7" d="M397.2 462.3s3.67-28.25 31-29.9c.02 0 3.88 30.47-31 29.9zm4.66-17.3s15.49-30.41-7.91-42.27c.05.01-13.84 28.52 7.91 42.27zm-59.66 23.64s-1.4-34.09-27.61-33c0 .03 1.91 31.67 27.61 33zm49.57 22.48s10.75-34.5-13.31-46.11c0-.01-12.27 34.31 13.31 46.11z"/><path class="cls-7" d="M390.67 504.62s-3.55-31.87 24.42-36.56c0 0 6.21 31.94-24.42 36.56zm23.57-85.07s-3.55-31.86 24.42-36.55c0 0 6.21 31.89-24.42 36.55z"/><path class="cls-3" d="M341.55 468.06l33.97 46.08"/><path class="cls-7" d="M357.75 490s-15.87-20.47-7-42.68c.03.03 19.57 15 7 42.68z"/><path class="cls-7" d="M360.33 493.54s-18.78 12.68-36.57-10.72c0 0 21.39-9.82 36.57 10.72zM375.52 514s-14.92 14.08-34.25-4.21c0 .01 17.66-11.95 34.25 4.21z"/><path class="cls-7" d="M375.52 514.14s-13.87-15.83-4-32c.02.02 15.89 15.86 4 32zm39.48-.04s4-23.37 25.09-26.23c.04 0 3.62 26.23-25.09 26.23z"/></g><g id="KITCHEN_SET" data-name="KITCHEN SET"><path class="cls-3" d="M499.34 683.84h3.32v93.27h-3.32z"/><path class="cls-3" d="M513.06 821.9h-24.12a6.14 6.14 0 01-5.93-7.13l1.74-33.42a6.06 6.06 0 015.93-5.27h20.63a6.07 6.07 0 015.94 5.27l1.75 33.42a6.14 6.14 0 01-5.94 7.13zM501 785.5v28.4m7.38-26.03v23.67m-14.76-23.67v23.67m11.74-167.87l-1.47 38.6A2.87 2.87 0 01501 685a2.86 2.86 0 01-2.86-2.75l-1.46-34.67a8.69 8.69 0 00-8.69-8.69A4 4 0 01492 635h4.73a8.69 8.69 0 018.63 8.67zM393.9 683.84h3.32v97.38h-3.32z"/><path class="cls-3" d="M357.27 810c8.16 11.69 23.3 14.34 34.63 5.9 11.33-8.43 12.23-24.75 4.06-36.45zm42.53-166.33l-1.47 38.6a2.87 2.87 0 01-2.87 2.76 2.87 2.87 0 01-2.87-2.75l-1.46-34.67a8.69 8.69 0 00-8.68-8.69 3.94 3.94 0 013.94-3.94h4.72a8.69 8.69 0 018.69 8.69zm156.26 40.17h3.32v93.27h-3.32z"/><path class="cls-3" d="M569.9 788.87l-2 33.52h-.39l-3-31.19a7 7 0 00-2.19-4.48 6.62 6.62 0 00-4.53-1.8 6.84 6.84 0 00-6.72 6.22l-3.19 31.25h-.13l-2-33.52a12.26 12.26 0 0112.05-12.45 11.84 11.84 0 018.53 3.64 12.69 12.69 0 013.57 8.81zm-7.82-145.2l-1.47 38.6a2.87 2.87 0 01-2.87 2.76 2.86 2.86 0 01-2.86-2.75l-1.46-34.67a8.69 8.69 0 00-8.68-8.69 3.94 3.94 0 013.93-3.94h4.73a8.69 8.69 0 018.68 8.69zm-116.8 40.17h3.32v73.57h-3.32z"/><path class="cls-3" d="M462.63 797.26c1 15.5-6.06 25.12-15.68 25.12-8.54 0-16.91-11.06-15.69-25.12 1.2-13.82 9.2-40.88 15.69-40.88s14.79 27.03 15.68 40.88z"/><path class="cls-3" d="M456.74 798.49c.62 14.74-5.24 23.89-9.8 23.89-3.67 0-10.55-10.52-9.79-23.89.75-13.15 5.74-41.22 9.79-41.22s9.24 28.05 9.8 41.22zm-6.13-154.82l-1.47 38.6a2.87 2.87 0 01-2.87 2.76 2.87 2.87 0 01-2.87-2.75l-1.46-34.67a8.68 8.68 0 00-8.68-8.69 4 4 0 013.94-3.92h4.73a8.69 8.69 0 018.68 8.67zm-3.67 113.6v65.11"/></g><g id="OVEN_MITT" data-name="OVEN MITT"><path class="cls-3" d="M677.2 673.72a8.94 8.94 0 00-4.69-2.79l-29.7-6.34-6.42-7-40.7 37.3 36.46 39.78c12.36 13.49 31.45 16.83 42.85 7.05 6-5.16 8.76-12.83 8.32-21a37.55 37.55 0 00-10.1-23l-5.86-6.39c-1.53-1.68-1.19-4.11.67-4.65l8.49-2.49a4.57 4.57 0 001.55-.94c2.3-2.04 2.08-6.32-.87-9.53z"/><path class="cls-8" d="M673.52 675.65a8.94 8.94 0 00-4.69-2.79l-29.7-6.34-6.42-7-40.71 37.3 36.46 39.78c12.36 13.49 31.45 16.83 42.86 7 6-5.16 8.75-12.83 8.31-21a37.53 37.53 0 00-10.1-23l-5.85-6.39c-1.54-1.68-1.2-4.11.66-4.65l8.49-2.5a4.4 4.4 0 001.55-.93c2.31-1.99 2.09-6.27-.86-9.48z"/><path class="cls-3" d="M624.7 643.36c.11 2.34 4.68 9.5 4.68 9.5s3.91-7.53 3.81-9.88a4.25 4.25 0 00-8.49.38z"/><path class="cls-8" d="M628.47 654l-42.34 38.8a1.81 1.81 0 00-.11 2.56l3 3.27a1.81 1.81 0 002.56.11l42.42-38.8a1.82 1.82 0 00.11-2.57l-3-3.26a1.83 1.83 0 00-2.64-.11z"/></g></g></g><g id="PICTURE"><path class="cls-5" d="M689.93 334.09h146.36v146.36H689.93z"/><path class="cls-3" d="M683.44 327.61H829.8v146.36H683.44z"/><path class="cls-3" d="M706.75 350.92h99.74v99.74h-99.74zm50.41 27.57s2.74-9.08-3.64-11.84"/><path class="cls-7" d="M770.67 392.75a25 25 0 003.77 9.56 21.42 21.42 0 11-35.82.27 26.48 26.48 0 004-9.83l.13-.75c.16-.89.25-1.79.33-2.7a12.33 12.33 0 0112.27-11.2h2.63a12.32 12.32 0 0112.27 11.2c.08.91.17 1.81.33 2.7z"/><path class="cls-3" d="M758.33 378s-.67-8.32 11.29-12.08c0 .01 1.66 14.97-11.29 12.08z"/></g></g></g></svg>